<svg width="22" height="21" viewBox="0 0 22 21" fill="none" xmlns="http://www.w3.org/2000/svg">
<path d="M2.6149 0C1.03377 0 0 1.03825 0 2.40288C0 3.73738 1.00298 4.80524 2.55423 4.80524H2.58424C4.19629 4.80524 5.19953 3.73738 5.19953 2.40288C5.16939 1.03825 4.19629 0 2.6149 0V0Z" fill="white" fill-opacity="0.9"/>
<path d="M0.273193 6.7041H4.8955V20.6105H0.273193V6.7041Z" fill="white" fill-opacity="0.9"/>
<path d="M16.2412 6.37744C13.7476 6.37744 12.0756 8.72058 12.0756 8.72058V6.70383H7.45312V20.6102H12.0753V12.8444C12.0753 12.4286 12.1054 12.0135 12.2276 11.7162C12.5617 10.886 13.3221 10.026 14.5991 10.026C16.2717 10.026 16.9407 11.3013 16.9407 13.1707V20.6102H21.5626V12.6365C21.5626 8.36511 19.2821 6.37744 16.2412 6.37744V6.37744Z" fill="white" fill-opacity="0.9"/>
</svg>
