<svg width="23" height="23" viewBox="0 0 23 23" fill="none" xmlns="http://www.w3.org/2000/svg">
<path d="M22.9372 6.76208C22.8833 5.54 22.6856 4.69983 22.4025 3.97181C22.1105 3.19904 21.6612 2.50717 21.0725 1.93202C20.4974 1.34792 19.801 0.894052 19.0371 0.606566C18.3049 0.323467 17.4691 0.125841 16.247 0.0719594C15.0158 0.0135143 14.625 0 11.5023 0C8.37959 0 7.98872 0.0135143 6.76208 0.0673962C5.54 0.121278 4.69983 0.319079 3.97198 0.602002C3.19904 0.894052 2.50717 1.34336 1.93202 1.93202C1.34792 2.50717 0.894227 3.2036 0.606565 3.96742C0.323466 4.69983 0.125841 5.53544 0.0719594 6.75752C0.0135143 7.98873 0 8.37959 0 11.5023C0 14.625 0.0135143 15.0158 0.0673961 16.2425C0.121278 17.4646 0.319079 18.3047 0.602177 19.0328C0.894227 19.8055 1.34792 20.4974 1.93202 21.0725C2.50717 21.6566 3.2036 22.1105 3.96742 22.398C4.69983 22.6811 5.53544 22.8787 6.75769 22.9326C7.98416 22.9867 8.3752 23 11.4979 23C14.6206 23 15.0114 22.9867 16.2381 22.9326C17.4602 22.8787 18.3003 22.6811 19.0282 22.398C20.5739 21.8004 21.796 20.5783 22.3936 19.0328C22.6765 18.3003 22.8743 17.4646 22.9282 16.2425C22.9821 15.0158 22.9956 14.625 22.9956 11.5023C22.9956 8.37959 22.991 7.98873 22.9372 6.76208ZM20.866 16.1526C20.8165 17.2759 20.6278 17.8825 20.4705 18.2868C20.0841 19.2888 19.2888 20.0841 18.2868 20.4705C17.8824 20.6278 17.2715 20.8165 16.1526 20.8658C14.9395 20.9198 14.5756 20.9332 11.5068 20.9332C8.43803 20.9332 8.06964 20.9198 6.86089 20.8658C5.73762 20.8165 5.13106 20.6278 4.72668 20.4705C4.22806 20.2862 3.77418 19.9942 3.40579 19.6123C3.02388 19.2393 2.73183 18.79 2.54754 18.2914C2.39028 17.887 2.20161 17.2759 2.15229 16.1572C2.09823 14.944 2.08489 14.58 2.08489 11.5112C2.08489 8.44242 2.09823 8.07403 2.15229 6.86546C2.20161 5.74219 2.39028 5.13562 2.54754 4.73125C2.73183 4.23244 3.02388 3.77875 3.41035 3.41018C3.78314 3.02826 4.23244 2.73621 4.73124 2.5521C5.13562 2.39485 5.74675 2.20617 6.86546 2.15668C8.07859 2.1028 8.4426 2.08928 11.5112 2.08928C14.5846 2.08928 14.9484 2.1028 16.1572 2.15668C17.2804 2.20617 17.887 2.39485 18.2914 2.5521C18.79 2.73621 19.2439 3.02826 19.6123 3.41018C19.9942 3.78314 20.2862 4.23244 20.4705 4.73125C20.6278 5.13562 20.8165 5.74658 20.866 6.86546C20.9198 8.07859 20.9333 8.44242 20.9333 11.5112C20.9333 14.58 20.9198 14.9395 20.866 16.1526Z" fill="white" fill-opacity="0.9"/>
<path d="M11.5017 5.59375C8.23979 5.59375 5.59326 8.2401 5.59326 11.5021C5.59326 14.7642 8.23979 17.4105 11.5017 17.4105C14.7637 17.4105 17.4101 14.7642 17.4101 11.5021C17.4101 8.2401 14.7637 5.59375 11.5017 5.59375ZM11.5017 15.3348C9.38553 15.3348 7.66903 13.6185 7.66903 11.5021C7.66903 9.38584 9.38553 7.66952 11.5017 7.66952C13.618 7.66952 15.3343 9.38584 15.3343 11.5021C15.3343 13.6185 13.618 15.3348 11.5017 15.3348V15.3348Z" fill="white" fill-opacity="0.9"/>
<path d="M19.0233 5.3603C19.0233 6.12202 18.4056 6.73964 17.6437 6.73964C16.882 6.73964 16.2644 6.12202 16.2644 5.3603C16.2644 4.5984 16.882 3.98096 17.6437 3.98096C18.4056 3.98096 19.0233 4.5984 19.0233 5.3603V5.3603Z" fill="white" fill-opacity="0.9"/>
</svg>
