<svg width="22" height="22" viewBox="0 0 22 22" fill="none" xmlns="http://www.w3.org/2000/svg">
<path d="M20.7856 2.48854e-08H1.21333C0.543152 0.000402859 -0.000134252 0.543958 2.48854e-08 1.2144V20.7867C0.000402859 21.4568 0.543958 22.0001 1.2144 22H11.752V13.4922H8.89453V10.1621H11.752V7.71141C11.752 4.86943 13.487 3.32256 16.0221 3.32256C17.2364 3.32256 18.2798 3.41306 18.584 3.45348V6.42383H16.8358C15.4565 6.42383 15.1895 7.07924 15.1895 8.0412V10.1621H18.4873L18.0576 13.4922H15.1895V22H20.7856C21.4562 22.0001 21.9999 21.4567 22 20.7861C22 20.786 22 20.7859 22 20.7856V1.21333C21.9997 0.543152 21.456 -0.000134252 20.7856 2.48854e-08Z" fill="white" fill-opacity="0.9"/>
</svg>
