<svg width="21" height="20" viewBox="0 0 21 20" fill="none" xmlns="http://www.w3.org/2000/svg">
<g clip-path="url(#clip0)">
<path d="M17.5 0H3.35938C1.74408 0 0.429688 1.31439 0.429688 2.92969V17.0703C0.429688 18.6856 1.74408 20 3.35938 20H17.5C19.1153 20 20.4297 18.6856 20.4297 17.0703V2.92969C20.4297 1.31439 19.1153 0 17.5 0ZM10.4688 15.2344C7.56088 15.2344 5.19531 12.8688 5.19531 9.96094C5.19531 7.05307 7.56088 4.6875 10.4688 4.6875C13.3766 4.6875 15.7422 7.05307 15.7422 9.96094C15.7422 12.8688 13.3766 15.2344 10.4688 15.2344ZM16.3281 5.85938C15.3589 5.85938 14.5703 5.0708 14.5703 4.10156C14.5703 3.13232 15.3589 2.34375 16.3281 2.34375C17.2974 2.34375 18.0859 3.13232 18.0859 4.10156C18.0859 5.0708 17.2974 5.85938 16.3281 5.85938Z" fill="#595176" fill-opacity="0.75"/>
<path d="M16.3281 3.51562C16.0048 3.51562 15.7422 3.77823 15.7422 4.10156C15.7422 4.4249 16.0048 4.6875 16.3281 4.6875C16.6515 4.6875 16.9141 4.4249 16.9141 4.10156C16.9141 3.77823 16.6515 3.51562 16.3281 3.51562Z" fill="#595176" fill-opacity="0.75"/>
<path d="M10.4688 5.85938C8.2074 5.85938 6.36719 7.69958 6.36719 9.96094C6.36719 12.2223 8.2074 14.0625 10.4688 14.0625C12.7301 14.0625 14.5703 12.2223 14.5703 9.96094C14.5703 7.69958 12.7301 5.85938 10.4688 5.85938Z" fill="#595176" fill-opacity="0.75"/>
</g>
<defs>
<clipPath id="clip0">
<rect width="20" height="20" fill="white" transform="translate(0.429688)"/>
</clipPath>
</defs>
</svg>
