<svg width="145" height="145" viewBox="0 0 145 145" fill="none" xmlns="http://www.w3.org/2000/svg">
<circle cx="70.5" cy="71.5" r="48.5" fill="#4527A0"/>
<path d="M59.2159 74.94C58.4634 74.5766 57.6234 74.3667 56.7333 74.3667C53.5721 74.3667 51 76.9388 51 80.1C51 83.2612 53.5721 85.8333 56.7333 85.8333C58.7171 85.8333 60.4679 84.82 61.4977 83.2841L66.9136 85.9953C66.8204 86.4045 66.7667 86.8295 66.7667 87.2667C66.7667 90.4279 69.3388 93 72.5 93C75.6612 93 78.2333 90.4279 78.2333 87.2667C78.2333 86.0784 77.87 84.974 77.2479 84.0574L84.8582 76.1003C85.8128 76.8083 86.9896 77.2333 88.2667 77.2333C91.4279 77.2333 94 74.6612 94 71.5C94 68.3388 91.4279 65.7667 88.2667 65.7667C86.9437 65.7667 85.7282 66.221 84.7564 66.9764L77.0236 59.2436C77.779 58.2718 78.2333 57.0563 78.2333 55.7333C78.2333 52.5721 75.6612 50 72.5 50C69.3388 50 66.7667 52.5721 66.7667 55.7333C66.7667 56.1691 66.8197 56.5926 66.9129 57.0011L61.8303 58.853C60.8771 57.0033 58.9528 55.7333 56.7333 55.7333C53.5721 55.7333 51 58.3054 51 61.4667C51 64.6279 53.5721 67.2 56.7333 67.2C57.5489 67.2 58.3236 67.0266 59.0267 66.7177L61.6647 71.1574L59.2159 74.94ZM56.7333 84.4C54.3619 84.4 52.4333 82.4714 52.4333 80.1C52.4333 77.7285 54.3619 75.8 56.7333 75.8C59.1048 75.8 61.0333 77.7285 61.0333 80.1C61.0333 82.4714 59.1048 84.4 56.7333 84.4ZM62.1363 81.9999C62.3463 81.4043 62.4667 80.7665 62.4667 80.1C62.4667 78.342 61.6697 76.7682 60.4206 75.7161L62.4817 72.5327L68.6959 82.9896C68.1728 83.4554 67.7349 84.013 67.4102 84.6401L62.1363 81.9999ZM72.5 61.4667C73.823 61.4667 75.0384 61.0123 76.0102 60.2569L83.7438 67.9905C83.2801 68.5868 82.9332 69.2755 82.7333 70.0251L78.2312 69.4059C78.2305 69.3873 78.2333 69.3686 78.2333 69.35C78.2333 66.1888 75.6612 63.6167 72.5 63.6167C70.5163 63.6167 68.7647 64.63 67.7356 66.1658L66.8806 65.7387L70.0182 60.8933C70.77 61.2567 71.6099 61.4667 72.5 61.4667ZM73.2167 81.5828V75.0332C75.5458 74.7408 77.4407 73.048 78.0341 70.8249L82.5362 71.4441C82.5362 71.4627 82.5333 71.4814 82.5333 71.5C82.5333 72.8688 83.0164 74.1252 83.8197 75.112L76.2947 82.9803C75.4512 82.2328 74.3898 81.7304 73.2167 81.5828ZM72.5 65.05C74.8714 65.05 76.8 66.9785 76.8 69.35C76.8 71.7214 74.8714 73.65 72.5 73.65C70.1285 73.65 68.2 71.7214 68.2 69.35C68.2 66.9785 70.1285 65.05 72.5 65.05ZM67.097 67.4501C66.8871 68.0457 66.7667 68.6835 66.7667 69.35C66.7667 72.2683 68.9597 74.6791 71.7833 75.0339V81.5835C71.1039 81.6688 70.4625 81.8723 69.8784 82.174L63.351 71.1897L66.0966 66.9499L67.097 67.4501ZM72.5 91.5667C70.1285 91.5667 68.2 89.6381 68.2 87.2667C68.2 84.8952 70.1285 82.9667 72.5 82.9667C74.8714 82.9667 76.8 84.8952 76.8 87.2667C76.8 89.6381 74.8714 91.5667 72.5 91.5667ZM88.2667 67.2C90.6381 67.2 92.5667 69.1285 92.5667 71.5C92.5667 73.8714 90.6381 75.8 88.2667 75.8C85.8952 75.8 83.9667 73.8714 83.9667 71.5C83.9667 69.1285 85.8952 67.2 88.2667 67.2ZM72.5 51.4333C74.8714 51.4333 76.8 53.3619 76.8 55.7333C76.8 58.1048 74.8714 60.0333 72.5 60.0333C70.1285 60.0333 68.2 58.1048 68.2 55.7333C68.2 53.3619 70.1285 51.4333 72.5 51.4333ZM67.4031 58.347C67.7535 59.0271 68.233 59.6284 68.8127 60.1172L65.5906 65.0937L62.1363 63.3665C62.3463 62.771 62.4667 62.1332 62.4667 61.4667C62.4667 61.0309 62.4136 60.6074 62.3205 60.1989L67.4031 58.347ZM52.4333 61.4667C52.4333 59.0952 54.3619 57.1667 56.7333 57.1667C59.1048 57.1667 61.0333 59.0952 61.0333 61.4667C61.0333 63.8381 59.1048 65.7667 56.7333 65.7667C54.3619 65.7667 52.4333 63.8381 52.4333 61.4667ZM60.2557 65.9809C60.7359 65.6054 61.1573 65.1582 61.4977 64.6508L64.8066 66.3049L62.534 69.8144L60.2557 65.9809Z" fill="white"/>
<circle cx="71.5" cy="72.5" r="60" stroke="white" stroke-opacity="0.14"/>
<circle cx="72.5" cy="72.5" r="72" stroke="white" stroke-opacity="0.06"/>
</svg>
