<svg width="23" height="22" viewBox="0 0 23 22" fill="none" xmlns="http://www.w3.org/2000/svg">
<path d="M22.4243 21.7267V21.7258H22.4298V13.7215C22.4298 9.8057 21.5777 6.78931 16.9502 6.78931C14.7256 6.78931 13.2327 7.99696 12.6233 9.14186H12.5589V7.15488H8.17139V21.7258H12.74V14.5108C12.74 12.6111 13.1041 10.7742 15.4821 10.7742C17.8253 10.7742 17.8602 12.9421 17.8602 14.6327V21.7267H22.4243Z" fill="#595176" fill-opacity="0.75"/>
<path d="M0.702881 7.46875H5.45568V21.7272H0.702881V7.46875Z" fill="#595176" fill-opacity="0.75"/>
<path d="M2.73981 0C1.24052 0 0.0239258 1.21092 0.0239258 2.70323C0.0239258 4.19553 1.24052 5.43178 2.73981 5.43178C4.23911 5.43178 5.4557 4.19553 5.4557 2.70323C5.45476 1.21092 4.23817 0 2.73981 0V0Z" fill="#595176" fill-opacity="0.75"/>
</svg>
