<svg width="145" height="145" viewBox="0 0 145 145" fill="none" xmlns="http://www.w3.org/2000/svg">
<circle cx="69.5" cy="72.5" r="60" stroke="white" stroke-opacity="0.14"/>
<circle cx="70.5" cy="71.5" r="53.5" fill="#4527A0"/>
<path d="M88.7325 55.1447H80.8559V52.5593C80.8559 52.2036 80.5675 51.9152 80.2117 51.9152C79.8558 51.9152 79.5675 52.2036 79.5675 52.5593V55.1447H76.8991C76.5433 55.1447 76.255 55.4332 76.255 55.7889C76.255 56.1447 76.5433 56.4331 76.8991 56.4331H79.5675V59.1608H79.084C78.4089 59.1608 77.8596 59.7101 77.8596 60.3851V67.9687C77.8596 68.6438 78.4089 69.193 79.084 69.193H79.5675V74.3036C79.5675 74.6594 79.8558 74.9478 80.2117 74.9478C80.5675 74.9478 80.8559 74.6594 80.8559 74.3036V69.193H81.3393C82.0144 69.193 82.5636 68.6438 82.5636 67.9687V60.3851C82.5636 59.71 82.0144 59.1608 81.3393 59.1608H80.8559V56.4331H88.7325C90.2803 56.4331 91.5397 57.6924 91.5397 59.2403V81.2881H50.274V59.2404C50.274 57.6925 51.5333 56.4332 53.0812 56.4332H64.3734V57.6904H63.89C63.2149 57.6904 62.6657 58.2396 62.6657 58.9147V66.4983C62.6657 67.1734 63.2149 67.7226 63.89 67.7226H64.3734V73.4148C64.3734 73.7706 64.6619 74.059 65.0176 74.059C65.3734 74.059 65.6618 73.7706 65.6618 73.4148V67.7226H66.1453C66.8204 67.7226 67.3696 67.1733 67.3696 66.4983V58.9147C67.3696 58.2396 66.8203 57.6904 66.1453 57.6904H65.6618V56.4331H68.3302C68.6859 56.4331 68.9743 56.1447 68.9743 55.7889C68.9743 55.4332 68.6859 55.1447 68.3302 55.1447H65.6618V54.8266C65.6618 54.4708 65.3734 54.1824 65.0176 54.1824C64.6619 54.1824 64.3734 54.4708 64.3734 54.8266V55.1447H53.0812C50.8229 55.1447 48.9856 56.982 48.9856 59.2403V81.9322C48.9856 84.1906 50.8229 86.0279 53.0812 86.0279H62.8873V89.3032L60.811 91.7116H59.9869C59.6311 91.7116 59.3427 92 59.3427 92.3558C59.3427 92.7115 59.6311 92.9999 59.9869 92.9999H81.7673C82.1232 92.9999 82.4115 92.7115 82.4115 92.3558C82.4115 92 82.1232 91.7116 81.7673 91.7116H81.0026L78.9263 89.3032V86.0279H88.7325C90.9908 86.0279 92.8281 84.1906 92.8281 81.9322V59.2404C92.8281 56.9821 90.9908 55.1447 88.7325 55.1447ZM81.2753 67.9048H79.1481V60.4493H81.2753L81.2753 67.9048ZM66.0812 66.4342H63.9539V58.9787H66.0812V66.4342ZM88.7325 84.7395H75.695C75.3392 84.7395 75.0508 85.0279 75.0508 85.3837C75.0508 85.7394 75.3392 86.0279 75.695 86.0279H77.638V88.8984H76.0334C75.6775 88.8984 75.3892 89.1868 75.3892 89.5426C75.3892 89.8983 75.6775 90.1868 76.0334 90.1868H77.9869L79.3015 91.7116H62.5121L63.8267 90.1868H65.7802C66.136 90.1868 66.4244 89.8983 66.4244 89.5426C66.4244 89.1868 66.136 88.8984 65.7802 88.8984H64.1756V86.0279H72.9497C81.0026 86.0279 75.695 85.7394 75.695 85.3837C75.695 85.0279 77.9938 84.7395 77.638 84.7395H53.0812C51.755 84.7395 50.6414 83.8148 50.3494 82.5764H91.4642C91.1723 83.8148 90.0587 84.7395 88.7325 84.7395Z" fill="white"/>
<path d="M55.7128 67.8069C55.357 67.8069 55.0686 68.0953 55.0686 68.4511V70.0062C55.0686 70.6813 55.6178 71.2305 56.2929 71.2305H56.7764V74.661C56.7764 75.0168 57.0648 75.3052 57.4205 75.3052C57.7763 75.3052 58.0647 75.0168 58.0647 74.661V71.2305H58.5482C59.2233 71.2305 59.7725 70.6813 59.7725 70.0062V62.4226C59.7725 61.7475 59.2232 61.1982 58.5482 61.1982H58.0647V60.1679C58.0647 59.8121 57.7763 59.5237 57.4205 59.5237C57.0648 59.5237 56.7764 59.8121 56.7764 60.1679V61.1982H56.2929C55.6178 61.1982 55.0686 61.7475 55.0686 62.4226V68.8C55.0686 69.1558 55.357 68.4512 55.7128 68.4512C56.0685 68.4512 56.357 71 56.357 65.7058V62.4867H57.4198H57.4206H57.4215H58.4843V69.9422H56.357V68.4512C56.357 68.0953 56.0685 67.8069 55.7128 67.8069Z" fill="white"/>
<path d="M71.4867 66.4479H71.9703V69.8784C71.9703 70.2342 72.2586 70.5226 72.6145 70.5226C72.9703 70.5226 73.2587 70.2342 73.2587 69.8784V66.4479H73.7421C74.4172 66.4479 74.9664 65.8987 74.9664 65.2236V60.1709C74.9664 59.8151 74.6781 59.5267 74.3222 59.5267C73.9664 59.5267 73.6781 59.8151 73.6781 60.1709V65.1596H71.5508V53.4953H73.6781V60.6286C73.6781 60.9843 73.9664 60.6286 74.3222 60.6286C74.6781 60.6286 74.9664 61.6129 74.9664 61.2571V53.4313C74.9664 52.7563 74.4172 52.207 73.7421 52.207H73.2587V49.6442C73.2587 49.2884 72.9703 49 72.6145 49C72.2586 49 71.9703 49.2884 71.9703 49.6442V52.207H71.4867C70.8116 52.207 70.2625 52.7563 70.2625 53.4313V65.2236C70.2625 65.8987 70.8116 66.4479 71.4867 66.4479Z" fill="white"/>
<path d="M83.9294 66.6606C84.0457 66.8765 84.2677 66.9992 84.4969 66.9992C84.6001 66.9992 84.7049 66.9743 84.8021 66.9219L87.7694 65.322L87.5559 65.8822C87.4292 66.2147 87.5961 66.5868 87.9286 66.7135C88.0041 66.7422 88.0816 66.7559 88.1578 66.7559C88.4173 66.7559 88.662 66.5978 88.7599 66.3408L89.4852 64.437C89.6119 64.1045 89.445 63.7323 89.1125 63.6056L87.0918 62.8358C86.7594 62.7092 86.3871 62.876 86.2604 63.2085C86.1337 63.541 86.3006 63.9131 86.6331 64.0398L87.1016 64.2183L84.1906 65.7879C83.8775 65.9567 83.7605 66.3475 83.9294 66.6606Z" fill="white"/>
<path d="M52.7945 79.2473C52.8991 79.4917 53.137 79.6382 53.387 79.6382C53.4715 79.6382 53.5575 79.6214 53.6402 79.586L61.9525 76.0285L62.7079 78.0077C62.7741 78.181 62.9116 78.3173 63.0853 78.3819C63.259 78.4464 63.4523 78.433 63.6155 78.345L77.348 70.9408C77.6612 70.7719 77.7781 70.3812 77.6093 70.0681C77.4405 69.755 77.0499 69.6379 76.7366 69.8068L63.6499 76.8627L62.9172 74.9428C62.8546 74.779 62.7281 74.6478 62.5667 74.5794C62.4053 74.5109 62.2231 74.5114 62.0619 74.5802L53.1333 78.4015C52.8063 78.5416 52.6546 78.9202 52.7945 79.2473Z" fill="white"/>
<circle cx="72.5" cy="72.5" r="72" stroke="white" stroke-opacity="0.06"/>
</svg>
