<svg width="145" height="145" viewBox="0 0 145 145" fill="none" xmlns="http://www.w3.org/2000/svg">
<circle cx="71.5" cy="71.5" r="53.5" fill="#4527A0"/>
<path fill-rule="evenodd" clip-rule="evenodd" d="M64.2663 71.8631C64.4672 72.0232 64.674 72.1771 64.8867 72.3246C66.7543 73.6199 69.0311 74.3815 71.4837 74.3815C73.9363 74.3815 76.2131 73.62 78.0807 72.3246C78.2934 72.1771 78.5002 72.0232 78.7012 71.8631L79.0166 71.6117L78.903 71.2247C77.9568 68.0027 74.9428 65.7451 71.4837 65.7451C69.4245 65.7451 67.4844 66.5347 66.0255 67.9681C65.0954 68.8821 64.4249 69.9968 64.0644 71.2248L63.9508 71.6118L64.2663 71.8631ZM79.6657 69.7138L80.0844 70.6239L80.6891 69.8252C82.1118 67.9462 82.9568 65.6163 82.9568 63.0959C82.9568 56.8624 77.8009 51.8103 71.4837 51.8103C65.1665 51.8103 60.0106 56.8624 60.0106 63.0959C60.0106 65.6163 60.8549 67.9453 62.2784 69.8244L62.8827 70.6222L63.3015 69.7133C63.7425 68.7565 64.3583 67.8794 65.1319 67.1192C65.9059 66.3585 66.7948 65.7549 67.7602 65.3237L68.5829 64.9563L67.9266 64.3389C66.949 63.4191 66.3432 62.1284 66.3432 60.7032C66.3432 57.9336 68.6398 55.6616 71.4837 55.6616C74.3276 55.6616 76.6243 57.9336 76.6243 60.7032C76.6243 62.1292 76.0176 63.4205 75.0386 64.3413L74.3824 64.9585L75.2048 65.3261C77.169 66.2041 78.7664 67.7593 79.6657 69.7138ZM84.2094 63.0959C84.2094 69.9758 78.51 75.5918 71.4837 75.5918C64.4574 75.5918 58.7581 69.9758 58.7581 63.0959C58.7581 56.2159 64.4574 50.6 71.4837 50.6C78.51 50.6 84.2094 56.2159 84.2094 63.0959ZM71.4837 56.8719C69.349 56.8719 67.5957 58.58 67.5957 60.7032C67.5957 62.8262 69.3489 64.5348 71.4837 64.5348C73.6185 64.5348 75.3717 62.8262 75.3717 60.7032C75.3717 58.58 73.6184 56.8719 71.4837 56.8719Z" fill="white"/>
<rect x="82.2498" y="80.3459" width="1.34871" height="9.44095" fill="white"/>
<rect x="50.3335" y="80.0887" width="41.5789" height="10.5468" rx="0.570175" stroke="white"/>
<circle cx="55.6067" cy="85.3621" r="1.44335" fill="white"/>
<circle cx="60.6584" cy="85.3621" r="1.44335" fill="white"/>
<circle cx="65.7104" cy="85.3621" r="1.44335" fill="white"/>
<circle cx="70.7622" cy="85.3621" r="1.44335" fill="white"/>
<circle cx="75.8137" cy="85.3621" r="1.44335" fill="white"/>
<circle cx="72.5" cy="72.5" r="60" stroke="white" stroke-opacity="0.14"/>
<circle cx="72.5" cy="72.5" r="72" stroke="white" stroke-opacity="0.06"/>
</svg>
