<svg width="22" height="19" viewBox="0 0 22 19" fill="none" xmlns="http://www.w3.org/2000/svg">
<path d="M8.72134 18.5959C7.80659 18.5959 6.86505 18.5197 5.91786 18.3669C4.24958 18.0975 2.56081 17.1997 2.08294 16.9308L0.82959 16.2258L2.18655 15.7666C3.66987 15.2648 4.5722 14.9534 5.68917 14.4659C4.57074 13.9086 3.70877 12.9061 3.29384 11.6102L2.97816 10.6242L3.23703 10.6649C2.99155 10.4103 2.79773 10.1519 2.64747 9.91695C2.11312 9.08186 1.8302 8.06144 1.8904 7.18699L1.94979 6.32632L2.45058 6.52592C2.23932 6.11543 2.08665 5.67704 1.99692 5.21756C1.77823 4.09702 1.96125 2.90656 2.51239 1.86555L2.94863 1.04158L3.53205 1.7626C5.3772 4.04321 7.71428 5.39607 10.4881 5.79212C10.3748 4.98857 10.4597 4.21309 10.7406 3.51798C11.0678 2.70862 11.6497 2.02231 12.4231 1.53311C13.282 0.989938 14.3236 0.726739 15.356 0.791999C16.4514 0.861245 17.4459 1.28353 18.2357 2.01401C18.6214 1.91089 18.9056 1.80079 19.2897 1.652C19.5208 1.5625 19.7829 1.46087 20.1109 1.34463L21.3194 0.916209L20.5313 3.23203C20.5833 3.22755 20.6368 3.22373 20.6928 3.22124L21.9833 3.16112L21.2206 4.23368C21.1768 4.29512 21.1657 4.31256 21.1502 4.33664C21.0887 4.43195 21.0122 4.55052 19.9653 5.98889C19.7032 6.34907 19.5723 6.81818 19.5967 7.31004C19.6895 9.17917 19.4666 10.8703 18.9339 12.3362C18.43 13.7231 17.6492 14.9131 16.6134 15.8731C15.3317 17.0607 13.6973 17.8739 11.7555 18.2897C10.8029 18.4936 9.78005 18.5959 8.72134 18.5959Z" fill="#595176" fill-opacity="0.75"/>
</svg>
