<svg width="117" height="117" viewBox="0 0 117 117" fill="none" xmlns="http://www.w3.org/2000/svg">
<circle cx="58" cy="58" r="39" fill="#4527A0"/>
<path d="M107.5 58.5C107.5 85.0048 85.7907 106.5 59 106.5C32.2093 106.5 10.5 85.0048 10.5 58.5C10.5 31.9952 32.2093 10.5 59 10.5C85.7907 10.5 107.5 31.9952 107.5 58.5Z" stroke="white" stroke-opacity="0.14"/>
<circle cx="58.5" cy="58.5" r="58" stroke="white" stroke-opacity="0.06"/>
<path d="M46.0957 78.9412C46.0957 78.8862 45.7658 74.762 40.5418 74.762C35.2627 74.762 34.9878 78.9412 34.9878 78.9412V80.151C34.9878 80.4809 35.2627 80.7558 35.5927 80.7558H45.4908C45.8208 80.7558 46.0957 80.4809 46.0957 80.151V78.9412Z" fill="white"/>
<path d="M40.4319 73.7718C41.9716 73.7718 43.1813 72.397 43.1813 70.7473C43.1813 69.0976 41.9166 67.7229 40.4319 67.7229C38.8921 67.7229 37.6824 69.0976 37.6824 70.7473C37.6824 72.397 38.8921 73.7718 40.4319 73.7718Z" fill="white"/>
<path d="M82.884 78.9412C82.884 78.8862 82.5541 74.762 77.3301 74.762C72.0511 74.762 71.7761 78.9412 71.7761 78.9412V80.151C71.7761 80.4809 72.0511 80.7558 72.381 80.7558H82.2792C82.6091 80.7558 82.884 80.4809 82.884 80.151V78.9412Z" fill="white"/>
<path d="M77.165 73.7718C78.7047 73.7718 79.9145 72.397 79.9145 70.7473C79.9145 69.0976 78.6497 67.7229 77.165 67.7229C75.6253 67.7229 74.4155 69.0976 74.4155 70.7473C74.4155 72.397 75.6253 73.7718 77.165 73.7718Z" fill="white"/>
<path d="M64.2422 41.218C64.2422 41.163 63.9123 37.0388 58.6882 37.0388C53.4092 37.0388 53.1343 41.218 53.1343 41.218V42.4278C53.1343 42.7577 53.4092 43.0327 53.7392 43.0327H63.6373C63.9672 43.0327 64.2422 42.7577 64.2422 42.4278V41.218Z" fill="white"/>
<path d="M58.5234 36.0489C60.0631 36.0489 61.2729 34.6741 61.2729 33.0244C61.2729 31.3747 60.0081 30 58.5234 30C56.9837 30 55.7739 31.3747 55.7739 33.0244C55.7739 34.6741 57.0387 36.0489 58.5234 36.0489Z" fill="white"/>
<path d="M50.22 37.6438C50.11 37.3688 49.835 37.2039 49.5601 37.2039C49.4501 37.2039 49.3401 37.2039 49.2852 37.2588C28.884 46.2222 35.2628 66.9533 35.3178 67.1183C35.4277 67.5032 35.8677 67.7231 36.1976 67.5582C36.3626 67.5032 36.5275 67.3932 36.6375 67.2282C36.7475 67.0633 36.7475 66.8433 36.6925 66.6783C36.6925 66.6233 35.0978 61.7293 35.9776 55.7904C37.0774 47.8719 41.7516 42.0979 49.835 38.5786C50.22 38.4686 50.3849 38.0287 50.22 37.6438Z" fill="white"/>
<path d="M68.8616 37.3138C68.7516 37.2588 68.6966 37.2039 68.5866 37.2039C68.4766 37.2039 68.4216 37.2039 68.3117 37.2588C68.1467 37.3138 67.9817 37.4788 67.9267 37.6438C67.8718 37.8087 67.8718 38.0287 67.9267 38.1937C67.9817 38.3586 68.1467 38.5236 68.3117 38.5786C87.5031 46.992 81.7292 65.8535 81.4542 66.6783C81.3442 67.0633 81.5642 67.4482 81.8941 67.5582C82.279 67.6681 82.664 67.4482 82.774 67.1183C82.8839 66.9533 89.3177 46.2222 68.8616 37.3138Z" fill="white"/>
<path d="M68.3666 80.6455C58.3585 84.8797 50.165 80.7005 50.055 80.6455C49.9451 80.5905 49.8351 80.5905 49.7251 80.5905C49.6701 80.5905 49.5601 80.5905 49.5051 80.6455C49.3402 80.7005 49.1752 80.8105 49.0652 80.9754C48.9553 81.1404 48.9553 81.3604 49.0102 81.5253C49.0652 81.6903 49.1752 81.8553 49.3402 81.9652C49.5051 82.0752 53.3544 83.9999 59.0184 83.9999C62.3727 83.9999 65.6721 83.34 68.8615 81.9652C69.2465 81.8003 69.4114 81.4153 69.2465 81.0304C69.1915 80.6455 68.7515 80.4805 68.3666 80.6455Z" fill="white"/>
<path d="M63.4175 49.7961H61.9878V51.2809H60.1182V56.8348H61.9878V60.4092H63.4175V56.8348H65.2872V51.3359H63.4175V49.7961ZM64.4074 52.1607V55.955H62.5377H60.998V52.1607H64.4074Z" fill="white"/>
<path d="M70.1263 54.3055V52.3809H68.8065V54.3055H66.8269V67.503H68.8065V69.9226H70.1263V67.503H71.9409V54.3055H70.1263ZM71.1161 66.6782H69.3014H67.7067V55.1303H71.1161V66.6782Z" fill="white"/>
<path d="M50.0001 59.8596H48.5703V62.3891H46.7007V69.2629H48.5703V70.5826H50.0001V69.2629H51.8697V62.3891H50.0001V59.8596ZM50.9899 63.214V68.383H49.1202H47.5805V63.214H50.9899Z" fill="white"/>
<path d="M56.7086 47.8716H55.2788V52.2708H53.4092V66.898H55.2788V69.1526H56.7086V66.898H58.5782V52.3257H56.7086V47.8716ZM57.6984 53.1506V66.0182H55.8287H54.289V53.1506H57.6984Z" fill="white"/>
</svg>
