<svg width="117" height="117" viewBox="0 0 117 117" fill="none" xmlns="http://www.w3.org/2000/svg">
<circle cx="58" cy="58" r="39" fill="#4527A0"/>
<path d="M107.5 58.5C107.5 85.0048 85.7907 106.5 59 106.5C32.2093 106.5 10.5 85.0048 10.5 58.5C10.5 31.9952 32.2093 10.5 59 10.5C85.7907 10.5 107.5 31.9952 107.5 58.5Z" stroke="white" stroke-opacity="0.14"/>
<circle cx="58.5" cy="58.5" r="58" stroke="white" stroke-opacity="0.06"/>
<mask id="path-4-outside-1" maskUnits="userSpaceOnUse" x="32" y="32" width="52" height="52" fill="black">
<rect fill="white" x="32" y="32" width="52" height="52"/>
<path fill-rule="evenodd" clip-rule="evenodd" d="M61.979 36.9603C61.979 34.7764 60.1943 33 58.0001 33C55.8059 33 54.0212 34.7764 54.0212 36.9603C54.0212 39.1441 55.8059 40.9208 58.0001 40.9208C60.1943 40.9208 61.979 39.1441 61.979 36.9603ZM55.2712 36.9603C55.2712 35.4658 56.4956 34.25 58.0001 34.25C59.5046 34.25 60.729 35.4658 60.729 36.9603C60.729 38.455 59.5046 39.6708 58.0001 39.6708C56.4956 39.6708 55.2712 38.455 55.2712 36.9603ZM72.8695 39.1531H72.8585C71.8014 39.1531 70.8096 39.5635 70.0637 40.3094C69.3154 41.0577 68.9047 42.0544 68.9077 43.1152C68.9108 44.1747 69.3258 45.1721 70.0772 45.9231C70.8279 46.6744 71.8252 47.0898 72.8854 47.0925H72.8964C73.9535 47.0925 74.9453 46.6824 75.6912 45.9365C76.4395 45.1882 76.8502 44.1915 76.8472 43.1304C76.8441 42.0709 76.4291 41.0735 75.6777 40.3225C74.9264 39.5715 73.9297 39.1561 72.8695 39.1531ZM74.8074 45.0527C74.2977 45.5624 73.6196 45.8425 72.8964 45.8425H72.8884C72.1615 45.8407 71.4767 45.5554 70.961 45.0393C69.8971 43.9752 69.891 42.25 70.9475 41.1932C71.4572 40.6835 72.1353 40.4031 72.8585 40.4031H72.8665C73.5934 40.4052 74.2782 40.6906 74.794 41.2063C75.8578 42.2704 75.8639 43.9959 74.8074 45.0527ZM75.0793 58.0002C75.0793 55.806 76.8561 54.021 79.0393 54.021C81.2231 54.021 82.9999 55.806 82.9999 58.0002C82.9999 60.1944 81.2231 61.9794 79.0393 61.9794C76.8561 61.9794 75.0793 60.1944 75.0793 58.0002ZM76.3293 58.0002C76.3293 59.505 77.5452 60.7294 79.0393 60.7294C80.5341 60.7294 81.7499 59.505 81.7499 58.0002C81.7499 56.4954 80.5341 55.271 79.0393 55.271C77.5452 55.271 76.3293 56.4954 76.3293 58.0002ZM72.8964 68.9077H72.8854C71.8252 68.9105 70.8279 69.3258 70.0772 70.0771C69.3258 70.8282 68.9108 71.8255 68.9077 72.8851C68.9047 73.9459 69.3154 74.9426 70.0637 75.6909C70.8096 76.4367 71.8014 76.8472 72.8585 76.8472H72.8695C73.9297 76.8441 74.9264 76.4288 75.6777 75.6777C76.4291 74.9267 76.8441 73.9294 76.8472 72.8698C76.8502 71.8087 76.4395 70.812 75.6912 70.0637C74.9453 69.3179 73.9535 68.9077 72.8964 68.9077ZM74.794 74.7939C74.2782 75.3097 73.5934 75.595 72.8665 75.5972H72.8585C72.1353 75.5972 71.4572 75.3167 70.9475 74.8071C69.891 73.7502 69.8971 72.0251 70.961 70.9609C71.4767 70.4449 72.1615 70.1595 72.8884 70.1577H72.8964C73.6196 70.1577 74.2977 70.4379 74.8074 70.9475C75.8639 72.0043 75.8578 73.7298 74.794 74.7939ZM58.0001 82.9999C55.8059 82.9999 54.0212 81.2235 54.0212 79.0397C54.0212 76.8558 55.8059 75.0791 58.0001 75.0791C60.1943 75.0791 61.979 76.8558 61.979 79.0397C61.979 81.2235 60.1943 82.9999 58.0001 82.9999ZM58.0001 81.7499C59.5046 81.7499 60.729 80.5341 60.729 79.0397C60.729 77.5449 59.5046 76.3291 58.0001 76.3291C56.4956 76.3291 55.2712 77.5449 55.2712 79.0397C55.2712 80.5341 56.4956 81.7499 58.0001 81.7499ZM43.1308 76.8472H43.1417C44.1989 76.8472 45.1907 76.4367 45.9365 75.6909C46.6848 74.9426 47.0956 73.9459 47.0925 72.8851C47.0895 71.8255 46.6745 70.8282 45.9231 70.0771C45.1724 69.3258 44.1751 68.9105 43.1149 68.9077H43.1039C42.0468 68.9077 41.0549 69.3179 40.3091 70.0637C39.5608 70.812 39.15 71.8087 39.1531 72.8698C39.1561 73.9294 39.5712 74.9267 40.3225 75.6777C41.0739 76.4288 42.0706 76.8441 43.1308 76.8472ZM41.1929 70.9475C41.7025 70.4379 42.3806 70.1577 43.1039 70.1577H43.1118C43.8388 70.1595 44.5236 70.4449 45.0393 70.9609C46.1032 72.0251 46.1093 73.7502 45.0528 74.8071C44.5431 75.3167 43.865 75.5972 43.1417 75.5972H43.1338C42.4069 75.595 41.7221 75.3097 41.2063 74.7939C40.1425 73.7298 40.1364 72.0043 41.1929 70.9475ZM36.9606 61.9794C34.7767 61.9794 33 60.1944 33 58.0002C33 55.806 34.7767 54.021 36.9606 54.021C39.1438 54.021 40.9205 55.806 40.9205 58.0002C40.9205 60.1944 39.1438 61.9794 36.9606 61.9794ZM36.9606 60.7294C38.4547 60.7294 39.6705 59.505 39.6705 58.0002C39.6705 56.4954 38.4547 55.271 36.9606 55.271C35.4658 55.271 34.25 56.4954 34.25 58.0002C34.25 59.505 35.4658 60.7294 36.9606 60.7294ZM43.1417 39.1531H43.1308C42.0706 39.1561 41.0739 39.5715 40.3225 40.3225C39.5712 41.0735 39.1561 42.0709 39.1531 43.1304C39.15 44.1915 39.5608 45.1882 40.3091 45.9365C41.0549 46.6824 42.0468 47.0925 43.1039 47.0925H43.1149C44.1751 47.0898 45.1724 46.6744 45.9231 45.9231C46.6745 45.1721 47.0895 44.1747 47.0925 43.1152C47.0956 42.0544 46.6848 41.0577 45.9365 40.3094C45.1907 39.5635 44.1989 39.1531 43.1417 39.1531ZM45.0393 45.0393C44.5236 45.5554 43.8388 45.8407 43.1118 45.8425H43.1039C42.3806 45.8425 41.7025 45.5624 41.1929 45.0527C40.1364 43.9959 40.1425 42.2704 41.2063 41.2063C41.7221 40.6906 42.4069 40.4052 43.1338 40.4031H43.1417C43.865 40.4031 44.5431 40.6835 45.0528 41.1932C46.1093 42.25 46.1032 43.9752 45.0393 45.0393ZM48.0696 40.159C47.9732 40.2131 47.8688 40.2384 47.7657 40.2384C47.5465 40.2384 47.3335 40.123 47.2194 39.918C47.0509 39.6164 47.159 39.2359 47.4605 39.0677C48.8374 38.2993 50.3011 37.6819 51.8105 37.2324C52.1419 37.1332 52.4898 37.3227 52.5874 37.6533C52.6863 37.9841 52.4977 38.332 52.1669 38.4305C50.7454 38.8538 49.3666 39.4355 48.0696 40.159ZM63.5376 38.3395C64.9671 38.745 66.3532 39.3087 67.6581 40.0146C67.7527 40.0658 67.8546 40.0899 67.9547 40.0899C68.1769 40.0899 68.3917 39.9715 68.5053 39.7625C68.6694 39.4588 68.5565 39.0795 68.2526 38.9153C66.8677 38.1658 65.3961 37.5677 63.8794 37.1371C63.5449 37.0418 63.2019 37.2353 63.1073 37.5677C63.0127 37.8997 63.2056 38.2452 63.5376 38.3395ZM75.7631 47.9915C75.5946 47.69 75.7027 47.3094 76.0042 47.141C76.3051 46.9737 76.6866 47.0805 76.8544 47.3824C77.6234 48.7602 78.2405 50.2238 78.6891 51.7323C78.788 52.0631 78.5994 52.411 78.2686 52.5096C78.2094 52.5273 78.149 52.5359 78.0904 52.5359C77.8206 52.5359 77.5722 52.3601 77.4916 52.0888C77.0686 50.6679 76.487 49.2894 75.7631 47.9915ZM76.4558 68.502C76.678 68.502 76.8928 68.3836 77.0063 68.1746C77.7559 66.79 78.354 65.3187 78.7843 63.8014C78.8783 63.4694 78.686 63.1236 78.3534 63.0296C78.0238 62.9359 77.6759 63.1276 77.5819 63.4602C77.1766 64.8894 76.6127 66.2755 75.9071 67.5795C75.7423 67.8831 75.8552 68.2625 76.1586 68.4266C76.2532 68.4779 76.3551 68.502 76.4558 68.502ZM63.8331 77.4133C65.2546 76.99 66.6334 76.4084 67.9304 75.6848C68.2313 75.5163 68.6127 75.6241 68.7806 75.9259C68.949 76.2274 68.841 76.6079 68.5395 76.7761C67.1625 77.5445 65.6989 78.1619 64.1895 78.6114C64.1303 78.6291 64.0699 78.6377 64.0113 78.6377C63.7415 78.6377 63.4931 78.4622 63.4125 78.1906C63.3137 77.8598 63.5023 77.5119 63.8331 77.4133ZM52.4622 77.504C51.0328 77.0984 49.6467 76.5347 48.3417 75.8289C48.0372 75.6635 47.6594 75.7776 47.4946 76.0809C47.3304 76.3846 47.4433 76.7639 47.7472 76.9281C49.1321 77.6776 50.6037 78.2758 52.1204 78.7064C52.1778 78.7225 52.2352 78.7305 52.2919 78.7305C52.5641 78.7305 52.8144 78.5507 52.8925 78.2758C52.9871 77.9437 52.7942 77.5983 52.4622 77.504ZM40.237 67.8522C40.4054 68.1537 40.2974 68.5343 39.9959 68.7027C39.8995 68.7564 39.7951 68.7818 39.6919 68.7818C39.4728 68.7818 39.2598 68.6664 39.1457 68.4613C38.3766 67.0835 37.7596 65.6199 37.311 64.1114C37.2121 63.7806 37.4007 63.4327 37.7315 63.3341C38.0629 63.2352 38.4108 63.4247 38.5085 63.7549C38.9314 65.1758 39.5131 66.5543 40.237 67.8522ZM37.2157 52.0424C37.1217 52.3744 37.314 52.7201 37.6466 52.8141C37.7034 52.8303 37.7608 52.8383 37.8175 52.8383C38.0898 52.8383 38.34 52.6585 38.4181 52.3835C38.8234 50.9544 39.3874 49.5683 40.0929 48.2643C40.2577 47.9606 40.1448 47.5813 39.8415 47.4171C39.5381 47.2532 39.1585 47.3655 38.9937 47.6692C38.2442 49.0538 37.646 50.525 37.2157 52.0424ZM43.2974 58.4422C43.1802 58.325 43.1143 58.166 43.1143 58C43.1143 57.834 43.1802 57.675 43.2974 57.5578L52.2341 48.6302C52.413 48.4517 52.6821 48.398 52.9153 48.495C53.149 48.5918 53.301 48.8197 53.301 49.0724V53.7428L62.6992 53.7694V49.0724C62.6992 48.8197 62.8512 48.5918 63.085 48.495C63.3193 48.3986 63.5873 48.4517 63.7661 48.6302L72.7029 57.5578C72.8201 57.675 72.886 57.834 72.886 58C72.886 58.166 72.8201 58.325 72.7029 58.4422L63.7661 67.3698C63.6465 67.4892 63.4866 67.5526 63.3242 67.5526C63.2437 67.5526 63.1625 67.5371 63.085 67.505C62.8512 67.4083 62.6992 67.1803 62.6992 66.9276V62.2572L53.301 62.2307V66.9276C53.301 67.1803 53.149 67.4083 52.9153 67.505C52.6827 67.6021 52.413 67.5484 52.2341 67.3698L43.2974 58.4422ZM52.051 54.366V50.5803L44.6237 58L52.051 65.4198V61.6038C52.051 61.4378 52.1169 61.2785 52.2347 61.1613C52.3519 61.0445 52.5106 60.9788 52.676 60.9788H52.6779L63.326 61.0091C63.6703 61.01 63.9492 61.2895 63.9492 61.6341V65.4198L71.3766 58L63.9492 50.5803V54.3962C63.9492 54.5622 63.8833 54.7215 63.7655 54.8387C63.6477 54.9562 63.464 55.0069 63.3224 55.0212L52.6742 54.991C52.33 54.9901 52.051 54.7105 52.051 54.366Z"/>
</mask>
<path fill-rule="evenodd" clip-rule="evenodd" d="M61.979 36.9603C61.979 34.7764 60.1943 33 58.0001 33C55.8059 33 54.0212 34.7764 54.0212 36.9603C54.0212 39.1441 55.8059 40.9208 58.0001 40.9208C60.1943 40.9208 61.979 39.1441 61.979 36.9603ZM55.2712 36.9603C55.2712 35.4658 56.4956 34.25 58.0001 34.25C59.5046 34.25 60.729 35.4658 60.729 36.9603C60.729 38.455 59.5046 39.6708 58.0001 39.6708C56.4956 39.6708 55.2712 38.455 55.2712 36.9603ZM72.8695 39.1531H72.8585C71.8014 39.1531 70.8096 39.5635 70.0637 40.3094C69.3154 41.0577 68.9047 42.0544 68.9077 43.1152C68.9108 44.1747 69.3258 45.1721 70.0772 45.9231C70.8279 46.6744 71.8252 47.0898 72.8854 47.0925H72.8964C73.9535 47.0925 74.9453 46.6824 75.6912 45.9365C76.4395 45.1882 76.8502 44.1915 76.8472 43.1304C76.8441 42.0709 76.4291 41.0735 75.6777 40.3225C74.9264 39.5715 73.9297 39.1561 72.8695 39.1531ZM74.8074 45.0527C74.2977 45.5624 73.6196 45.8425 72.8964 45.8425H72.8884C72.1615 45.8407 71.4767 45.5554 70.961 45.0393C69.8971 43.9752 69.891 42.25 70.9475 41.1932C71.4572 40.6835 72.1353 40.4031 72.8585 40.4031H72.8665C73.5934 40.4052 74.2782 40.6906 74.794 41.2063C75.8578 42.2704 75.8639 43.9959 74.8074 45.0527ZM75.0793 58.0002C75.0793 55.806 76.8561 54.021 79.0393 54.021C81.2231 54.021 82.9999 55.806 82.9999 58.0002C82.9999 60.1944 81.2231 61.9794 79.0393 61.9794C76.8561 61.9794 75.0793 60.1944 75.0793 58.0002ZM76.3293 58.0002C76.3293 59.505 77.5452 60.7294 79.0393 60.7294C80.5341 60.7294 81.7499 59.505 81.7499 58.0002C81.7499 56.4954 80.5341 55.271 79.0393 55.271C77.5452 55.271 76.3293 56.4954 76.3293 58.0002ZM72.8964 68.9077H72.8854C71.8252 68.9105 70.8279 69.3258 70.0772 70.0771C69.3258 70.8282 68.9108 71.8255 68.9077 72.8851C68.9047 73.9459 69.3154 74.9426 70.0637 75.6909C70.8096 76.4367 71.8014 76.8472 72.8585 76.8472H72.8695C73.9297 76.8441 74.9264 76.4288 75.6777 75.6777C76.4291 74.9267 76.8441 73.9294 76.8472 72.8698C76.8502 71.8087 76.4395 70.812 75.6912 70.0637C74.9453 69.3179 73.9535 68.9077 72.8964 68.9077ZM74.794 74.7939C74.2782 75.3097 73.5934 75.595 72.8665 75.5972H72.8585C72.1353 75.5972 71.4572 75.3167 70.9475 74.8071C69.891 73.7502 69.8971 72.0251 70.961 70.9609C71.4767 70.4449 72.1615 70.1595 72.8884 70.1577H72.8964C73.6196 70.1577 74.2977 70.4379 74.8074 70.9475C75.8639 72.0043 75.8578 73.7298 74.794 74.7939ZM58.0001 82.9999C55.8059 82.9999 54.0212 81.2235 54.0212 79.0397C54.0212 76.8558 55.8059 75.0791 58.0001 75.0791C60.1943 75.0791 61.979 76.8558 61.979 79.0397C61.979 81.2235 60.1943 82.9999 58.0001 82.9999ZM58.0001 81.7499C59.5046 81.7499 60.729 80.5341 60.729 79.0397C60.729 77.5449 59.5046 76.3291 58.0001 76.3291C56.4956 76.3291 55.2712 77.5449 55.2712 79.0397C55.2712 80.5341 56.4956 81.7499 58.0001 81.7499ZM43.1308 76.8472H43.1417C44.1989 76.8472 45.1907 76.4367 45.9365 75.6909C46.6848 74.9426 47.0956 73.9459 47.0925 72.8851C47.0895 71.8255 46.6745 70.8282 45.9231 70.0771C45.1724 69.3258 44.1751 68.9105 43.1149 68.9077H43.1039C42.0468 68.9077 41.0549 69.3179 40.3091 70.0637C39.5608 70.812 39.15 71.8087 39.1531 72.8698C39.1561 73.9294 39.5712 74.9267 40.3225 75.6777C41.0739 76.4288 42.0706 76.8441 43.1308 76.8472ZM41.1929 70.9475C41.7025 70.4379 42.3806 70.1577 43.1039 70.1577H43.1118C43.8388 70.1595 44.5236 70.4449 45.0393 70.9609C46.1032 72.0251 46.1093 73.7502 45.0528 74.8071C44.5431 75.3167 43.865 75.5972 43.1417 75.5972H43.1338C42.4069 75.595 41.7221 75.3097 41.2063 74.7939C40.1425 73.7298 40.1364 72.0043 41.1929 70.9475ZM36.9606 61.9794C34.7767 61.9794 33 60.1944 33 58.0002C33 55.806 34.7767 54.021 36.9606 54.021C39.1438 54.021 40.9205 55.806 40.9205 58.0002C40.9205 60.1944 39.1438 61.9794 36.9606 61.9794ZM36.9606 60.7294C38.4547 60.7294 39.6705 59.505 39.6705 58.0002C39.6705 56.4954 38.4547 55.271 36.9606 55.271C35.4658 55.271 34.25 56.4954 34.25 58.0002C34.25 59.505 35.4658 60.7294 36.9606 60.7294ZM43.1417 39.1531H43.1308C42.0706 39.1561 41.0739 39.5715 40.3225 40.3225C39.5712 41.0735 39.1561 42.0709 39.1531 43.1304C39.15 44.1915 39.5608 45.1882 40.3091 45.9365C41.0549 46.6824 42.0468 47.0925 43.1039 47.0925H43.1149C44.1751 47.0898 45.1724 46.6744 45.9231 45.9231C46.6745 45.1721 47.0895 44.1747 47.0925 43.1152C47.0956 42.0544 46.6848 41.0577 45.9365 40.3094C45.1907 39.5635 44.1989 39.1531 43.1417 39.1531ZM45.0393 45.0393C44.5236 45.5554 43.8388 45.8407 43.1118 45.8425H43.1039C42.3806 45.8425 41.7025 45.5624 41.1929 45.0527C40.1364 43.9959 40.1425 42.2704 41.2063 41.2063C41.7221 40.6906 42.4069 40.4052 43.1338 40.4031H43.1417C43.865 40.4031 44.5431 40.6835 45.0528 41.1932C46.1093 42.25 46.1032 43.9752 45.0393 45.0393ZM48.0696 40.159C47.9732 40.2131 47.8688 40.2384 47.7657 40.2384C47.5465 40.2384 47.3335 40.123 47.2194 39.918C47.0509 39.6164 47.159 39.2359 47.4605 39.0677C48.8374 38.2993 50.3011 37.6819 51.8105 37.2324C52.1419 37.1332 52.4898 37.3227 52.5874 37.6533C52.6863 37.9841 52.4977 38.332 52.1669 38.4305C50.7454 38.8538 49.3666 39.4355 48.0696 40.159ZM63.5376 38.3395C64.9671 38.745 66.3532 39.3087 67.6581 40.0146C67.7527 40.0658 67.8546 40.0899 67.9547 40.0899C68.1769 40.0899 68.3917 39.9715 68.5053 39.7625C68.6694 39.4588 68.5565 39.0795 68.2526 38.9153C66.8677 38.1658 65.3961 37.5677 63.8794 37.1371C63.5449 37.0418 63.2019 37.2353 63.1073 37.5677C63.0127 37.8997 63.2056 38.2452 63.5376 38.3395ZM75.7631 47.9915C75.5946 47.69 75.7027 47.3094 76.0042 47.141C76.3051 46.9737 76.6866 47.0805 76.8544 47.3824C77.6234 48.7602 78.2405 50.2238 78.6891 51.7323C78.788 52.0631 78.5994 52.411 78.2686 52.5096C78.2094 52.5273 78.149 52.5359 78.0904 52.5359C77.8206 52.5359 77.5722 52.3601 77.4916 52.0888C77.0686 50.6679 76.487 49.2894 75.7631 47.9915ZM76.4558 68.502C76.678 68.502 76.8928 68.3836 77.0063 68.1746C77.7559 66.79 78.354 65.3187 78.7843 63.8014C78.8783 63.4694 78.686 63.1236 78.3534 63.0296C78.0238 62.9359 77.6759 63.1276 77.5819 63.4602C77.1766 64.8894 76.6127 66.2755 75.9071 67.5795C75.7423 67.8831 75.8552 68.2625 76.1586 68.4266C76.2532 68.4779 76.3551 68.502 76.4558 68.502ZM63.8331 77.4133C65.2546 76.99 66.6334 76.4084 67.9304 75.6848C68.2313 75.5163 68.6127 75.6241 68.7806 75.9259C68.949 76.2274 68.841 76.6079 68.5395 76.7761C67.1625 77.5445 65.6989 78.1619 64.1895 78.6114C64.1303 78.6291 64.0699 78.6377 64.0113 78.6377C63.7415 78.6377 63.4931 78.4622 63.4125 78.1906C63.3137 77.8598 63.5023 77.5119 63.8331 77.4133ZM52.4622 77.504C51.0328 77.0984 49.6467 76.5347 48.3417 75.8289C48.0372 75.6635 47.6594 75.7776 47.4946 76.0809C47.3304 76.3846 47.4433 76.7639 47.7472 76.9281C49.1321 77.6776 50.6037 78.2758 52.1204 78.7064C52.1778 78.7225 52.2352 78.7305 52.2919 78.7305C52.5641 78.7305 52.8144 78.5507 52.8925 78.2758C52.9871 77.9437 52.7942 77.5983 52.4622 77.504ZM40.237 67.8522C40.4054 68.1537 40.2974 68.5343 39.9959 68.7027C39.8995 68.7564 39.7951 68.7818 39.6919 68.7818C39.4728 68.7818 39.2598 68.6664 39.1457 68.4613C38.3766 67.0835 37.7596 65.6199 37.311 64.1114C37.2121 63.7806 37.4007 63.4327 37.7315 63.3341C38.0629 63.2352 38.4108 63.4247 38.5085 63.7549C38.9314 65.1758 39.5131 66.5543 40.237 67.8522ZM37.2157 52.0424C37.1217 52.3744 37.314 52.7201 37.6466 52.8141C37.7034 52.8303 37.7608 52.8383 37.8175 52.8383C38.0898 52.8383 38.34 52.6585 38.4181 52.3835C38.8234 50.9544 39.3874 49.5683 40.0929 48.2643C40.2577 47.9606 40.1448 47.5813 39.8415 47.4171C39.5381 47.2532 39.1585 47.3655 38.9937 47.6692C38.2442 49.0538 37.646 50.525 37.2157 52.0424ZM43.2974 58.4422C43.1802 58.325 43.1143 58.166 43.1143 58C43.1143 57.834 43.1802 57.675 43.2974 57.5578L52.2341 48.6302C52.413 48.4517 52.6821 48.398 52.9153 48.495C53.149 48.5918 53.301 48.8197 53.301 49.0724V53.7428L62.6992 53.7694V49.0724C62.6992 48.8197 62.8512 48.5918 63.085 48.495C63.3193 48.3986 63.5873 48.4517 63.7661 48.6302L72.7029 57.5578C72.8201 57.675 72.886 57.834 72.886 58C72.886 58.166 72.8201 58.325 72.7029 58.4422L63.7661 67.3698C63.6465 67.4892 63.4866 67.5526 63.3242 67.5526C63.2437 67.5526 63.1625 67.5371 63.085 67.505C62.8512 67.4083 62.6992 67.1803 62.6992 66.9276V62.2572L53.301 62.2307V66.9276C53.301 67.1803 53.149 67.4083 52.9153 67.505C52.6827 67.6021 52.413 67.5484 52.2341 67.3698L43.2974 58.4422ZM52.051 54.366V50.5803L44.6237 58L52.051 65.4198V61.6038C52.051 61.4378 52.1169 61.2785 52.2347 61.1613C52.3519 61.0445 52.5106 60.9788 52.676 60.9788H52.6779L63.326 61.0091C63.6703 61.01 63.9492 61.2895 63.9492 61.6341V65.4198L71.3766 58L63.9492 50.5803V54.3962C63.9492 54.5622 63.8833 54.7215 63.7655 54.8387C63.6477 54.9562 63.464 55.0069 63.3224 55.0212L52.6742 54.991C52.33 54.9901 52.051 54.7105 52.051 54.366Z" fill="white"/>
<path d="M72.8695 39.1531L72.8701 38.9531H72.8695V39.1531ZM68.9077 43.1152L68.7077 43.1157L68.7077 43.1157L68.9077 43.1152ZM70.0772 45.9231L70.2186 45.7817L70.2186 45.7816L70.0772 45.9231ZM72.8854 47.0925L72.8849 47.2925H72.8854V47.0925ZM76.8472 43.1304L77.0472 43.1299L77.0472 43.1299L76.8472 43.1304ZM74.8074 45.0527L74.9488 45.1942L74.9488 45.1941L74.8074 45.0527ZM72.8884 45.8425L72.8879 46.0425H72.8884V45.8425ZM70.961 45.0393L71.1024 44.8979L71.1024 44.8979L70.961 45.0393ZM70.9475 41.1932L70.8061 41.0518L70.8061 41.0518L70.9475 41.1932ZM72.8665 40.4031L72.8671 40.2031H72.8665V40.4031ZM74.794 41.2063L74.9354 41.0649L74.9354 41.0649L74.794 41.2063ZM72.8854 68.9077V68.7077L72.8849 68.7077L72.8854 68.9077ZM70.0772 70.0771L70.2186 70.2186L70.2186 70.2185L70.0772 70.0771ZM68.9077 72.8851L68.7077 72.8845L68.7077 72.8845L68.9077 72.8851ZM72.8695 76.8472V77.0472L72.8701 77.0472L72.8695 76.8472ZM76.8472 72.8698L77.0472 72.8704L77.0472 72.8704L76.8472 72.8698ZM72.8665 75.5972V75.7972L72.8671 75.7972L72.8665 75.5972ZM74.794 74.7939L74.9354 74.9354L74.9354 74.9353L74.794 74.7939ZM70.9475 74.8071L70.8061 74.9485L70.8061 74.9485L70.9475 74.8071ZM70.961 70.9609L71.1024 71.1023L71.1024 71.1023L70.961 70.9609ZM72.8884 70.1577V69.9577L72.8879 69.9577L72.8884 70.1577ZM74.8074 70.9475L74.9488 70.8061L74.9488 70.8061L74.8074 70.9475ZM43.1308 76.8472L43.1302 77.0472H43.1308V76.8472ZM47.0925 72.8851L47.2925 72.8845L47.2925 72.8845L47.0925 72.8851ZM45.9231 70.0771L45.7816 70.2185L45.7817 70.2186L45.9231 70.0771ZM43.1149 68.9077L43.1154 68.7077H43.1149V68.9077ZM40.3091 70.0637L40.1677 69.9223L40.1677 69.9223L40.3091 70.0637ZM39.1531 72.8698L38.9531 72.8704L38.9531 72.8704L39.1531 72.8698ZM40.3225 75.6777L40.1811 75.8192L40.1811 75.8192L40.3225 75.6777ZM41.1929 70.9475L41.0515 70.8061L41.0514 70.8061L41.1929 70.9475ZM43.1118 70.1577L43.1123 69.9577H43.1118V70.1577ZM45.0393 70.9609L44.8979 71.1023L44.8979 71.1023L45.0393 70.9609ZM45.0528 74.8071L45.1942 74.9485L45.1942 74.9485L45.0528 74.8071ZM43.1338 75.5972L43.1332 75.7972H43.1338V75.5972ZM41.2063 74.7939L41.0649 74.9353L41.0649 74.9354L41.2063 74.7939ZM43.1308 39.1531V38.9531L43.1302 38.9531L43.1308 39.1531ZM40.3225 40.3225L40.1811 40.1811L40.1811 40.1811L40.3225 40.3225ZM39.1531 43.1304L38.9531 43.1299L38.9531 43.1299L39.1531 43.1304ZM40.3091 45.9365L40.1677 46.0779L40.1677 46.0779L40.3091 45.9365ZM43.1149 47.0925L43.1149 47.2925L43.1154 47.2925L43.1149 47.0925ZM45.9231 45.9231L45.7817 45.7816L45.7816 45.7817L45.9231 45.9231ZM47.0925 43.1152L47.2925 43.1157L47.2925 43.1157L47.0925 43.1152ZM43.1118 45.8425V46.0425L43.1123 46.0425L43.1118 45.8425ZM45.0393 45.0393L44.8979 44.8979L44.8979 44.8979L45.0393 45.0393ZM41.1929 45.0527L41.0514 45.1941L41.0515 45.1942L41.1929 45.0527ZM41.2063 41.2063L41.0649 41.0649L41.0649 41.0649L41.2063 41.2063ZM43.1338 40.4031L43.1338 40.2031L43.1332 40.2031L43.1338 40.4031ZM45.0528 41.1932L45.1942 41.0518L45.1942 41.0518L45.0528 41.1932ZM48.0696 40.159L47.9722 39.9844L47.9719 39.9846L48.0696 40.159ZM47.2194 39.918L47.3942 39.8207L47.394 39.8204L47.2194 39.918ZM47.4605 39.0677L47.5579 39.2424L47.5579 39.2424L47.4605 39.0677ZM51.8105 37.2324L51.8675 37.4241L51.8678 37.424L51.8105 37.2324ZM52.5874 37.6533L52.3956 37.7099L52.3958 37.7105L52.5874 37.6533ZM52.1669 38.4305L52.224 38.6222L52.224 38.6222L52.1669 38.4305ZM67.6581 40.0146L67.7534 39.8387L67.7532 39.8387L67.6581 40.0146ZM63.5376 38.3395L63.483 38.5318L63.483 38.5319L63.5376 38.3395ZM68.5053 39.7625L68.681 39.8579L68.6812 39.8576L68.5053 39.7625ZM68.2526 38.9153L68.1574 39.0912L68.1575 39.0913L68.2526 38.9153ZM63.8794 37.1371L63.8246 37.3294L63.8248 37.3295L63.8794 37.1371ZM63.1073 37.5677L63.2997 37.6225L63.2997 37.6224L63.1073 37.5677ZM76.0042 47.141L75.907 46.9661L75.9066 46.9664L76.0042 47.141ZM75.7631 47.9915L75.9378 47.8941L75.9377 47.8939L75.7631 47.9915ZM76.8544 47.3824L76.6796 47.4796L76.6798 47.4798L76.8544 47.3824ZM78.6891 51.7323L78.4974 51.7893L78.4975 51.7896L78.6891 51.7323ZM78.2686 52.5096L78.2115 52.3179L78.2113 52.318L78.2686 52.5096ZM77.4916 52.0888L77.6833 52.0318L77.6833 52.0317L77.4916 52.0888ZM77.0063 68.1746L77.1821 68.27L77.1822 68.2698L77.0063 68.1746ZM78.7843 63.8014L78.9767 63.856L78.9767 63.8559L78.7843 63.8014ZM78.3534 63.0296L78.2987 63.222L78.299 63.2221L78.3534 63.0296ZM77.5819 63.4602L77.7743 63.5148L77.7744 63.5146L77.5819 63.4602ZM75.9071 67.5795L76.0829 67.6749L76.083 67.6747L75.9071 67.5795ZM76.1586 68.4266L76.2539 68.2508L76.2538 68.2508L76.1586 68.4266ZM67.9304 75.6848L68.0278 75.8594L68.0281 75.8593L67.9304 75.6848ZM63.8331 77.4133L63.776 77.2216L63.776 77.2216L63.8331 77.4133ZM68.7806 75.9259L68.6058 76.0231L68.606 76.0234L68.7806 75.9259ZM68.5395 76.7761L68.4421 76.6014L68.442 76.6015L68.5395 76.7761ZM64.1895 78.6114L64.1324 78.4197L64.1322 78.4198L64.1895 78.6114ZM63.4125 78.1906L63.6043 78.1337L63.6042 78.1333L63.4125 78.1906ZM48.3417 75.8289L48.2463 76.0046L48.2466 76.0048L48.3417 75.8289ZM52.4622 77.504L52.5169 77.3116L52.5168 77.3116L52.4622 77.504ZM47.4946 76.0809L47.3188 75.9855L47.3186 75.9858L47.4946 76.0809ZM47.7472 76.9281L47.8424 76.7522L47.8423 76.7521L47.7472 76.9281ZM52.1204 78.7064L52.0658 78.8988L52.0661 78.8989L52.1204 78.7064ZM52.8925 78.2758L52.7002 78.221L52.7001 78.2211L52.8925 78.2758ZM39.9959 68.7027L40.0932 68.8775L40.0935 68.8773L39.9959 68.7027ZM40.237 67.8522L40.0623 67.9496L40.0624 67.9498L40.237 67.8522ZM39.1457 68.4613L39.3204 68.3641L39.3203 68.3639L39.1457 68.4613ZM37.311 64.1114L37.5027 64.0544L37.5026 64.0541L37.311 64.1114ZM37.7315 63.3341L37.7886 63.5258L37.7887 63.5257L37.7315 63.3341ZM38.5085 63.7549L38.3167 63.8116L38.3168 63.812L38.5085 63.7549ZM37.6466 52.8141L37.7014 52.6218L37.701 52.6217L37.6466 52.8141ZM37.2157 52.0424L37.0233 51.9878L37.0233 51.9879L37.2157 52.0424ZM38.4181 52.3835L38.6105 52.4382L38.6105 52.4381L38.4181 52.3835ZM40.0929 48.2643L39.9171 48.1689L39.917 48.1691L40.0929 48.2643ZM39.8415 47.4171L39.9367 47.2412L39.9365 47.2411L39.8415 47.4171ZM38.9937 47.6692L38.8179 47.5738L38.8178 47.574L38.9937 47.6692ZM43.2974 58.4422L43.1559 58.5836L43.156 58.5837L43.2974 58.4422ZM43.2974 57.5578L43.156 57.4163L43.1559 57.4164L43.2974 57.5578ZM52.2341 48.6302L52.0928 48.4887L52.0928 48.4887L52.2341 48.6302ZM52.9153 48.495L52.8384 48.6797L52.8388 48.6798L52.9153 48.495ZM53.301 53.7428H53.101V53.9423L53.3005 53.9428L53.301 53.7428ZM62.6992 53.7694L62.6987 53.9694L62.8992 53.9699V53.7694H62.6992ZM63.085 48.495L63.0089 48.3101L63.0085 48.3102L63.085 48.495ZM63.7661 48.6302L63.9075 48.4887L63.9074 48.4887L63.7661 48.6302ZM72.7029 57.5578L72.8443 57.4164L72.8442 57.4163L72.7029 57.5578ZM72.7029 58.4422L72.8442 58.5837L72.8443 58.5836L72.7029 58.4422ZM63.7661 67.3698L63.9074 67.5114L63.9075 67.5113L63.7661 67.3698ZM63.085 67.505L63.0085 67.6898L63.0086 67.6899L63.085 67.505ZM62.6992 62.2572H62.8992V62.0578L62.6998 62.0572L62.6992 62.2572ZM53.301 62.2307L53.3016 62.0307L53.101 62.0301V62.2307H53.301ZM52.9153 67.505L52.8388 67.3202L52.8383 67.3205L52.9153 67.505ZM52.2341 67.3698L52.0928 67.5113L52.0928 67.5114L52.2341 67.3698ZM52.051 50.5803H52.251V50.0978L51.9097 50.4388L52.051 50.5803ZM44.6237 58L44.4823 57.8585L44.3407 58L44.4823 58.1415L44.6237 58ZM52.051 65.4198L51.9097 65.5613L52.251 65.9023V65.4198H52.051ZM52.2347 61.1613L52.3758 61.3031L52.376 61.3029L52.2347 61.1613ZM52.6779 60.9788L52.6784 60.7788H52.6779V60.9788ZM63.326 61.0091L63.3255 61.2091L63.3255 61.2091L63.326 61.0091ZM63.9492 65.4198H63.7492V65.9023L64.0906 65.5613L63.9492 65.4198ZM71.3766 58L71.5179 58.1415L71.6596 58L71.5179 57.8585L71.3766 58ZM63.9492 50.5803L64.0906 50.4388L63.7492 50.0978V50.5803H63.9492ZM63.7655 54.8387L63.6244 54.6969L63.6243 54.6971L63.7655 54.8387ZM63.3224 55.0212L63.3218 55.2212L63.3322 55.2212L63.3425 55.2202L63.3224 55.0212ZM52.6742 54.991L52.6748 54.791L52.6747 54.791L52.6742 54.991ZM58.0001 33.2C60.0848 33.2 61.779 34.8878 61.779 36.9603H62.179C62.179 34.6651 60.3039 32.8 58.0001 32.8V33.2ZM54.2212 36.9603C54.2212 34.8878 55.9155 33.2 58.0001 33.2V32.8C55.6963 32.8 53.8212 34.6651 53.8212 36.9603H54.2212ZM58.0001 40.7208C55.9155 40.7208 54.2212 39.0328 54.2212 36.9603H53.8212C53.8212 39.2554 55.6963 41.1208 58.0001 41.1208V40.7208ZM61.779 36.9603C61.779 39.0328 60.0847 40.7208 58.0001 40.7208V41.1208C60.3039 41.1208 62.179 39.2554 62.179 36.9603H61.779ZM58.0001 34.05C56.3865 34.05 55.0712 35.3541 55.0712 36.9603H55.4712C55.4712 35.5776 56.6048 34.45 58.0001 34.45V34.05ZM60.929 36.9603C60.929 35.3541 59.6138 34.05 58.0001 34.05V34.45C59.3955 34.45 60.529 35.5776 60.529 36.9603H60.929ZM58.0001 39.8708C59.6138 39.8708 60.929 38.5668 60.929 36.9603H60.529C60.529 38.3433 59.3955 39.4708 58.0001 39.4708V39.8708ZM55.0712 36.9603C55.0712 38.5668 56.3864 39.8708 58.0001 39.8708V39.4708C56.6048 39.4708 55.4712 38.3433 55.4712 36.9603H55.0712ZM72.8585 39.3531H72.8695V38.9531H72.8585V39.3531ZM70.2052 40.4508C70.9134 39.7425 71.8543 39.3531 72.8585 39.3531V38.9531C71.7485 38.9531 70.7057 39.3845 69.9223 40.168L70.2052 40.4508ZM69.1077 43.1146C69.1048 42.1069 69.4946 41.1614 70.2052 40.4508L69.9223 40.168C69.1363 40.954 68.7045 42.0018 68.7077 43.1157L69.1077 43.1146ZM70.2186 45.7816C69.5045 45.0679 69.1106 44.1212 69.1077 43.1146L68.7077 43.1157C68.7109 44.2283 69.1471 45.2762 69.9358 46.0645L70.2186 45.7816ZM72.8859 46.8925C71.8787 46.8899 70.9321 46.4957 70.2186 45.7817L69.9357 46.0645C70.7237 46.8531 71.7717 47.2896 72.8849 47.2925L72.8859 46.8925ZM72.8964 46.8925H72.8854V47.2925H72.8964V46.8925ZM75.5498 45.7951C74.8415 46.5033 73.9006 46.8925 72.8964 46.8925V47.2925C74.0064 47.2925 75.0491 46.8614 75.8326 46.0779L75.5498 45.7951ZM76.6472 43.131C76.6501 44.139 76.2603 45.0846 75.5498 45.7951L75.8326 46.0779C76.6186 45.2919 77.0504 44.2441 77.0472 43.1299L76.6472 43.131ZM75.5364 40.464C76.2504 41.1777 76.6443 42.1244 76.6472 43.131L77.0472 43.1299C77.044 42.0173 76.6078 40.9694 75.8191 40.1811L75.5364 40.464ZM72.8689 39.3531C73.8761 39.356 74.8223 39.7501 75.5364 40.464L75.8191 40.1811C75.0306 39.3928 73.9833 38.9563 72.8701 38.9531L72.8689 39.3531ZM72.8964 46.0425C73.6724 46.0425 74.4015 45.7415 74.9488 45.1942L74.666 44.9113C74.194 45.3833 73.5668 45.6425 72.8964 45.6425V46.0425ZM72.8884 46.0425H72.8964V45.6425H72.8884V46.0425ZM70.8195 45.1807C71.3725 45.734 72.1079 46.0406 72.8879 46.0425L72.8889 45.6425C72.2151 45.6408 71.5809 45.3767 71.1024 44.8979L70.8195 45.1807ZM70.8061 41.0518C69.6706 42.1876 69.6785 44.0394 70.8195 45.1807L71.1024 44.8979C70.1157 43.9109 70.1115 42.3124 71.089 41.3346L70.8061 41.0518ZM72.8585 40.2031C72.0824 40.2031 71.3534 40.5045 70.8061 41.0518L71.0889 41.3346C71.561 40.8626 72.1881 40.6031 72.8585 40.6031V40.2031ZM72.8665 40.2031H72.8585V40.6031H72.8665V40.2031ZM74.9354 41.0649C74.3824 40.5119 73.647 40.2054 72.8671 40.2031L72.8659 40.6031C73.5398 40.6051 74.174 40.8692 74.6525 41.3477L74.9354 41.0649ZM74.9488 45.1941C76.0844 44.0583 76.0764 42.2062 74.9354 41.0649L74.6525 41.3477C75.6392 42.3347 75.6435 43.9335 74.6659 44.9113L74.9488 45.1941ZM79.0393 53.821C76.7447 53.821 74.8793 55.6964 74.8793 58.0002H75.2793C75.2793 55.9155 76.9674 54.221 79.0393 54.221V53.821ZM83.1999 58.0002C83.1999 55.6964 81.3345 53.821 79.0393 53.821V54.221C81.1118 54.221 82.7999 55.9155 82.7999 58.0002H83.1999ZM79.0393 62.1794C81.3345 62.1794 83.1999 60.304 83.1999 58.0002H82.7999C82.7999 60.0848 81.1118 61.7794 79.0393 61.7794V62.1794ZM74.8793 58.0002C74.8793 60.304 76.7447 62.1794 79.0393 62.1794V61.7794C76.9674 61.7794 75.2793 60.0848 75.2793 58.0002H74.8793ZM79.0393 60.5294C77.6569 60.5294 76.5293 59.3959 76.5293 58.0002H76.1293C76.1293 59.6141 77.4334 60.9294 79.0393 60.9294V60.5294ZM81.5499 58.0002C81.5499 59.3959 80.4223 60.5294 79.0393 60.5294V60.9294C80.6458 60.9294 81.9499 59.6142 81.9499 58.0002H81.5499ZM79.0393 55.471C80.4223 55.471 81.5499 56.6045 81.5499 58.0002H81.9499C81.9499 56.3862 80.6458 55.071 79.0393 55.071V55.471ZM76.5293 58.0002C76.5293 56.6045 77.6569 55.471 79.0393 55.471V55.071C77.4334 55.071 76.1293 56.3862 76.1293 58.0002H76.5293ZM72.8854 69.1077H72.8964V68.7077H72.8854V69.1077ZM70.2186 70.2185C70.9321 69.5045 71.8787 69.1103 72.8859 69.1077L72.8849 68.7077C71.7717 68.7106 70.7237 69.1471 69.9357 69.9358L70.2186 70.2185ZM69.1077 72.8856C69.1106 71.879 69.5045 70.9323 70.2186 70.2186L69.9358 69.9357C69.1471 70.724 68.7109 71.772 68.7077 72.8845L69.1077 72.8856ZM70.2052 75.5494C69.4946 74.8389 69.1048 73.8933 69.1077 72.8856L68.7077 72.8845C68.7045 73.9984 69.1363 75.0463 69.9223 75.8323L70.2052 75.5494ZM72.8585 76.6472C71.8543 76.6472 70.9134 76.2577 70.2052 75.5494L69.9223 75.8323C70.7057 76.6157 71.7485 77.0472 72.8585 77.0472V76.6472ZM72.8695 76.6472H72.8585V77.0472H72.8695V76.6472ZM75.5364 75.5363C74.8223 76.2501 73.8761 76.6443 72.8689 76.6472L72.8701 77.0472C73.9833 77.044 75.0306 76.6074 75.8191 75.8192L75.5364 75.5363ZM76.6472 72.8692C76.6443 73.8759 76.2504 74.8226 75.5364 75.5363L75.8191 75.8192C76.6078 75.0308 77.044 73.9829 77.0472 72.8704L76.6472 72.8692ZM75.5498 70.2051C76.2603 70.9157 76.6501 71.8613 76.6472 72.8692L77.0472 72.8704C77.0504 71.7562 76.6186 70.7083 75.8326 69.9223L75.5498 70.2051ZM72.8964 69.1077C73.9006 69.1077 74.8415 69.4969 75.5498 70.2051L75.8326 69.9223C75.0491 69.1388 74.0064 68.7077 72.8964 68.7077V69.1077ZM72.8671 75.7972C73.647 75.7949 74.3824 75.4883 74.9354 74.9354L74.6525 74.6525C74.174 75.131 73.5398 75.3952 72.8659 75.3972L72.8671 75.7972ZM72.8585 75.7972H72.8665V75.3972H72.8585V75.7972ZM70.8061 74.9485C71.3534 75.4958 72.0824 75.7972 72.8585 75.7972V75.3972C72.1881 75.3972 71.561 75.1377 71.0889 74.6656L70.8061 74.9485ZM70.8195 70.8195C69.6785 71.9608 69.6706 73.8126 70.8061 74.9485L71.089 74.6657C70.1115 73.6879 70.1157 72.0893 71.1024 71.1023L70.8195 70.8195ZM72.8879 69.9577C72.1079 69.9597 71.3725 70.2662 70.8195 70.8196L71.1024 71.1023C71.5809 70.6235 72.2151 70.3594 72.8889 70.3577L72.8879 69.9577ZM72.8964 69.9577H72.8884V70.3577H72.8964V69.9577ZM74.9488 70.8061C74.4015 70.2588 73.6724 69.9577 72.8964 69.9577V70.3577C73.5668 70.3577 74.194 70.617 74.666 71.0889L74.9488 70.8061ZM74.9354 74.9353C76.0764 73.794 76.0844 71.942 74.9488 70.8061L74.6659 71.0889C75.6435 72.0667 75.6392 73.6656 74.6525 74.6525L74.9354 74.9353ZM53.8212 79.0397C53.8212 81.3348 55.6963 83.1999 58.0001 83.1999V82.7999C55.9155 82.7999 54.2212 81.1122 54.2212 79.0397H53.8212ZM58.0001 74.8791C55.6963 74.8791 53.8212 76.7445 53.8212 79.0397H54.2212C54.2212 76.9672 55.9155 75.2791 58.0001 75.2791V74.8791ZM62.179 79.0397C62.179 76.7445 60.3039 74.8791 58.0001 74.8791V75.2791C60.0847 75.2791 61.779 76.9672 61.779 79.0397H62.179ZM58.0001 83.1999C60.3039 83.1999 62.179 81.3348 62.179 79.0397H61.779C61.779 81.1122 60.0848 82.7999 58.0001 82.7999V83.1999ZM60.529 79.0397C60.529 80.4224 59.3955 81.5499 58.0001 81.5499V81.9499C59.6138 81.9499 60.929 80.6459 60.929 79.0397H60.529ZM58.0001 76.5291C59.3955 76.5291 60.529 77.6567 60.529 79.0397H60.929C60.929 77.4332 59.6138 76.1291 58.0001 76.1291V76.5291ZM55.4712 79.0397C55.4712 77.6567 56.6048 76.5291 58.0001 76.5291V76.1291C56.3864 76.1291 55.0712 77.4332 55.0712 79.0397H55.4712ZM58.0001 81.5499C56.6048 81.5499 55.4712 80.4224 55.4712 79.0397H55.0712C55.0712 80.6459 56.3865 81.9499 58.0001 81.9499V81.5499ZM43.1417 76.6472H43.1308V77.0472H43.1417V76.6472ZM45.7951 75.5494C45.0869 76.2577 44.1459 76.6472 43.1417 76.6472V77.0472C44.2518 77.0472 45.2945 76.6157 46.078 75.8323L45.7951 75.5494ZM46.8925 72.8856C46.8954 73.8933 46.5057 74.8389 45.7951 75.5494L46.078 75.8323C46.864 75.0463 47.2957 73.9984 47.2925 72.8845L46.8925 72.8856ZM45.7817 70.2186C46.4957 70.9323 46.8896 71.879 46.8925 72.8856L47.2925 72.8845C47.2893 71.772 46.8532 70.724 46.0645 69.9357L45.7817 70.2186ZM43.1144 69.1077C44.1215 69.1103 45.0682 69.5045 45.7816 70.2185L46.0646 69.9358C45.2766 69.1471 44.2286 68.7106 43.1154 68.7077L43.1144 69.1077ZM43.1039 69.1077H43.1149V68.7077H43.1039V69.1077ZM40.4505 70.2051C41.1588 69.4969 42.0997 69.1077 43.1039 69.1077V68.7077C41.9939 68.7077 40.9511 69.1388 40.1677 69.9223L40.4505 70.2051ZM39.3531 72.8692C39.3502 71.8613 39.74 70.9157 40.4505 70.2051L40.1677 69.9223C39.3816 70.7083 38.9499 71.7562 38.9531 72.8704L39.3531 72.8692ZM40.4639 75.5363C39.7499 74.8226 39.356 73.8759 39.3531 72.8692L38.9531 72.8704C38.9563 73.9829 39.3925 75.0308 40.1811 75.8192L40.4639 75.5363ZM43.1313 76.6472C42.1242 76.6443 41.178 76.2501 40.4639 75.5363L40.1811 75.8192C40.9697 76.6074 42.017 77.044 43.1302 77.0472L43.1313 76.6472ZM43.1039 69.9577C42.3278 69.9577 41.5988 70.2588 41.0515 70.8061L41.3343 71.0889C41.8063 70.617 42.4334 70.3577 43.1039 70.3577V69.9577ZM43.1118 69.9577H43.1039V70.3577H43.1118V69.9577ZM45.1808 70.8196C44.6278 70.2662 43.8924 69.9597 43.1123 69.9577L43.1113 70.3577C43.7852 70.3594 44.4194 70.6235 44.8979 71.1023L45.1808 70.8196ZM45.1942 74.9485C46.3297 73.8126 46.3217 71.9608 45.1808 70.8195L44.8979 71.1023C45.8846 72.0893 45.8888 73.6879 44.9113 74.6657L45.1942 74.9485ZM43.1417 75.7972C43.9179 75.7972 44.6469 75.4958 45.1942 74.9485L44.9113 74.6656C44.4393 75.1377 43.8121 75.3972 43.1417 75.3972V75.7972ZM43.1338 75.7972H43.1417V75.3972H43.1338V75.7972ZM41.0649 74.9354C41.6179 75.4883 42.3533 75.7949 43.1332 75.7972L43.1344 75.3972C42.4605 75.3952 41.8263 75.131 41.3477 74.6525L41.0649 74.9354ZM41.0514 70.8061C39.9159 71.942 39.9239 73.794 41.0649 74.9353L41.3478 74.6525C40.3611 73.6656 40.3568 72.0667 41.3343 71.0889L41.0514 70.8061ZM32.8 58.0002C32.8 60.304 34.6654 62.1794 36.9606 62.1794V61.7794C34.8881 61.7794 33.2 60.0848 33.2 58.0002H32.8ZM36.9606 53.821C34.6654 53.821 32.8 55.6964 32.8 58.0002H33.2C33.2 55.9155 34.8881 54.221 36.9606 54.221V53.821ZM41.1205 58.0002C41.1205 55.6964 39.2552 53.821 36.9606 53.821V54.221C39.0324 54.221 40.7205 55.9155 40.7205 58.0002H41.1205ZM36.9606 62.1794C39.2552 62.1794 41.1205 60.304 41.1205 58.0002H40.7205C40.7205 60.0848 39.0324 61.7794 36.9606 61.7794V62.1794ZM39.4705 58.0002C39.4705 59.3959 38.3429 60.5294 36.9606 60.5294V60.9294C38.5665 60.9294 39.8705 59.6141 39.8705 58.0002H39.4705ZM36.9606 55.471C38.3429 55.471 39.4705 56.6045 39.4705 58.0002H39.8705C39.8705 56.3862 38.5665 55.071 36.9606 55.071V55.471ZM34.45 58.0002C34.45 56.6045 35.5776 55.471 36.9606 55.471V55.071C35.3541 55.071 34.05 56.3862 34.05 58.0002H34.45ZM36.9606 60.5294C35.5776 60.5294 34.45 59.3959 34.45 58.0002H34.05C34.05 59.6142 35.3541 60.9294 36.9606 60.9294V60.5294ZM43.1308 39.3531H43.1417V38.9531H43.1308V39.3531ZM40.4639 40.464C41.178 39.7501 42.1242 39.356 43.1313 39.3531L43.1302 38.9531C42.017 38.9563 40.9697 39.3928 40.1811 40.1811L40.4639 40.464ZM39.3531 43.131C39.356 42.1244 39.7499 41.1777 40.4639 40.464L40.1811 40.1811C39.3925 40.9694 38.9563 42.0173 38.9531 43.1299L39.3531 43.131ZM40.4505 45.7951C39.74 45.0846 39.3502 44.139 39.3531 43.131L38.9531 43.1299C38.9499 44.2441 39.3816 45.2919 40.1677 46.0779L40.4505 45.7951ZM43.1039 46.8925C42.0997 46.8925 41.1588 46.5033 40.4505 45.7951L40.1677 46.0779C40.9511 46.8614 41.9939 47.2925 43.1039 47.2925V46.8925ZM43.1149 46.8925H43.1039V47.2925H43.1149V46.8925ZM45.7816 45.7817C45.0682 46.4957 44.1215 46.8899 43.1144 46.8925L43.1154 47.2925C44.2286 47.2896 45.2766 46.8531 46.0646 46.0645L45.7816 45.7817ZM46.8925 43.1146C46.8896 44.1212 46.4957 45.0679 45.7817 45.7816L46.0645 46.0645C46.8532 45.2762 47.2893 44.2283 47.2925 43.1157L46.8925 43.1146ZM45.7951 40.4508C46.5057 41.1614 46.8954 42.1069 46.8925 43.1146L47.2925 43.1157C47.2957 42.0018 46.864 40.954 46.078 40.168L45.7951 40.4508ZM43.1417 39.3531C44.1459 39.3531 45.0869 39.7425 45.7951 40.4508L46.078 40.168C45.2945 39.3845 44.2518 38.9531 43.1417 38.9531V39.3531ZM43.1123 46.0425C43.8924 46.0406 44.6278 45.734 45.1808 45.1807L44.8979 44.8979C44.4194 45.3767 43.7852 45.6408 43.1113 45.6425L43.1123 46.0425ZM43.1039 46.0425H43.1118V45.6425H43.1039V46.0425ZM41.0515 45.1942C41.5988 45.7415 42.3278 46.0425 43.1039 46.0425V45.6425C42.4334 45.6425 41.8063 45.3833 41.3343 44.9113L41.0515 45.1942ZM41.0649 41.0649C39.9239 42.2062 39.9159 44.0583 41.0514 45.1941L41.3343 44.9113C40.3568 43.9335 40.3611 42.3347 41.3478 41.3477L41.0649 41.0649ZM43.1332 40.2031C42.3533 40.2054 41.6179 40.5119 41.0649 41.0649L41.3477 41.3477C41.8263 40.8692 42.4605 40.6051 43.1344 40.6031L43.1332 40.2031ZM43.1417 40.2031H43.1338V40.6031H43.1417V40.2031ZM45.1942 41.0518C44.6469 40.5045 43.9179 40.2031 43.1417 40.2031V40.6031C43.8121 40.6031 44.4393 40.8626 44.9113 41.3346L45.1942 41.0518ZM45.1808 45.1807C46.3217 44.0394 46.3297 42.1876 45.1942 41.0518L44.9113 41.3346C45.8888 42.3124 45.8846 43.9109 44.8979 44.8979L45.1808 45.1807ZM47.7657 40.4384C47.9018 40.4384 48.04 40.4049 48.1674 40.3335L47.9719 39.9846C47.9063 40.0213 47.8358 40.0384 47.7657 40.0384V40.4384ZM47.0446 40.0152C47.1956 40.2865 47.4772 40.4384 47.7657 40.4384V40.0384C47.6159 40.0384 47.4714 39.9596 47.3942 39.8207L47.0446 40.0152ZM47.3631 38.8931C46.9651 39.115 46.8224 39.6175 47.0448 40.0155L47.394 39.8204C47.2795 39.6154 47.3529 39.3568 47.5579 39.2424L47.3631 38.8931ZM51.7534 37.0407C50.2299 37.4944 48.7528 38.1175 47.363 38.8931L47.5579 39.2424C48.9221 38.4811 50.3722 37.8694 51.8675 37.4241L51.7534 37.0407ZM52.7792 37.5966C52.6503 37.1602 52.1909 36.9098 51.7531 37.0408L51.8678 37.424C52.0929 37.3567 52.3293 37.4853 52.3956 37.7099L52.7792 37.5966ZM52.224 38.6222C52.6605 38.4922 52.9097 38.033 52.7791 37.596L52.3958 37.7105C52.463 37.9352 52.335 38.1718 52.1098 38.2389L52.224 38.6222ZM48.1671 40.3337C49.4513 39.6173 50.8165 39.0413 52.224 38.6222L52.1098 38.2389C50.6743 38.6663 49.2819 39.2537 47.9722 39.9844L48.1671 40.3337ZM67.7532 39.8387C66.4354 39.1258 65.0357 38.5566 63.5922 38.1471L63.483 38.5319C64.8984 38.9334 66.2709 39.4916 67.5629 40.1905L67.7532 39.8387ZM67.9547 39.8899C67.8869 39.8899 67.8178 39.8737 67.7534 39.8387L67.5628 40.1904C67.6875 40.258 67.8224 40.2899 67.9547 40.2899V39.8899ZM68.3295 39.667C68.2523 39.8092 68.1064 39.8899 67.9547 39.8899V40.2899C68.2473 40.2899 68.5311 40.1339 68.681 39.8579L68.3295 39.667ZM68.1575 39.0913C68.3642 39.2029 68.441 39.4608 68.3293 39.6674L68.6812 39.8576C68.8979 39.4569 68.7489 38.9561 68.3476 38.7394L68.1575 39.0913ZM63.8248 37.3295C65.3275 37.7561 66.7854 38.3487 68.1574 39.0912L68.3478 38.7394C66.95 37.9829 65.4648 37.3793 63.934 36.9447L63.8248 37.3295ZM63.2997 37.6224C63.3643 37.3955 63.5972 37.2647 63.8246 37.3294L63.9342 36.9447C63.4927 36.819 63.0396 37.0751 62.915 37.5129L63.2997 37.6224ZM63.5922 38.1471C63.3663 38.0829 63.2354 37.848 63.2997 37.6225L62.915 37.5129C62.79 37.9514 63.0448 38.4074 63.483 38.5318L63.5922 38.1471ZM75.9066 46.9664C75.5088 47.1886 75.3661 47.6909 75.5885 48.089L75.9377 47.8939C75.8232 47.689 75.8965 47.4302 76.1017 47.3156L75.9066 46.9664ZM77.0292 47.2852C76.8072 46.886 76.3036 46.7457 75.907 46.9661L76.1013 47.3158C76.3065 47.2017 76.5659 47.2751 76.6796 47.4796L77.0292 47.2852ZM78.8808 51.6753C78.428 50.1528 77.8052 48.6756 77.029 47.2849L76.6798 47.4798C77.4417 48.8449 78.053 50.2949 78.4974 51.7893L78.8808 51.6753ZM78.3257 52.7013C78.7621 52.5712 79.0114 52.1121 78.8807 51.6751L78.4975 51.7896C78.5646 52.0142 78.4367 52.2508 78.2115 52.3179L78.3257 52.7013ZM78.0904 52.7359C78.1682 52.7359 78.248 52.7245 78.3259 52.7012L78.2113 52.318C78.1708 52.3301 78.1297 52.3359 78.0904 52.3359V52.7359ZM77.2999 52.1457C77.4063 52.5041 77.7344 52.7359 78.0904 52.7359V52.3359C77.9068 52.3359 77.738 52.216 77.6833 52.0318L77.2999 52.1457ZM75.5884 48.0889C76.3052 49.3741 76.8811 50.739 77.2999 52.1458L77.6833 52.0317C77.2561 50.5967 76.6688 49.2047 75.9378 47.8941L75.5884 48.0889ZM76.8306 68.0791C76.7534 68.2213 76.6075 68.302 76.4558 68.302V68.702C76.7484 68.702 77.0322 68.546 77.1821 68.27L76.8306 68.0791ZM78.5919 63.7468C78.1656 65.2501 77.573 66.7077 76.8305 68.0794L77.1822 68.2698C77.9387 66.8723 78.5424 65.3874 78.9767 63.856L78.5919 63.7468ZM78.299 63.2221C78.5249 63.2859 78.6559 63.5208 78.5919 63.7469L78.9767 63.8559C79.1007 63.4179 78.8471 62.9613 78.4078 62.8371L78.299 63.2221ZM77.7744 63.5146C77.8381 63.2891 78.0748 63.1583 78.2987 63.222L78.4081 62.8372C77.9728 62.7135 77.5137 62.9661 77.3894 63.4058L77.7744 63.5146ZM76.083 67.6747C76.7955 66.3578 77.365 64.958 77.7743 63.5148L77.3895 63.4057C76.9882 64.8207 76.4298 66.1932 75.7312 67.4843L76.083 67.6747ZM76.2538 68.2508C76.0476 68.1392 75.9708 67.8814 76.0829 67.6749L75.7313 67.4841C75.5138 67.8849 75.6628 68.3857 76.0634 68.6025L76.2538 68.2508ZM76.4558 68.302C76.3872 68.302 76.3182 68.2857 76.2539 68.2508L76.0633 68.6025C76.1881 68.6701 76.3229 68.702 76.4558 68.702V68.302ZM67.8329 75.5101C66.5487 76.2266 65.1834 76.8025 63.776 77.2216L63.8901 77.605C65.3257 77.1775 66.718 76.5901 68.0278 75.8594L67.8329 75.5101ZM68.9554 75.8287C68.7336 75.43 68.23 75.2878 67.8327 75.5103L68.0281 75.8593C68.2325 75.7448 68.4918 75.8181 68.6058 76.0231L68.9554 75.8287ZM68.6369 76.9508C69.0349 76.7288 69.1776 76.2264 68.9552 75.8283L68.606 76.0234C68.7205 76.2284 68.6471 76.4871 68.4421 76.6014L68.6369 76.9508ZM64.2466 78.8031C65.77 78.3494 67.2472 77.7263 68.6369 76.9507L68.442 76.6015C67.0779 77.3627 65.6278 77.9744 64.1324 78.4197L64.2466 78.8031ZM64.0113 78.8377C64.0892 78.8377 64.1689 78.8263 64.2468 78.8031L64.1322 78.4198C64.0917 78.4319 64.0506 78.4377 64.0113 78.4377V78.8377ZM63.2208 78.2475C63.3272 78.6063 63.6555 78.8377 64.0113 78.8377V78.4377C63.8276 78.4377 63.659 78.3181 63.6043 78.1337L63.2208 78.2475ZM63.776 77.2216C63.3395 77.3517 63.0903 77.8109 63.2209 78.2479L63.6042 78.1333C63.537 77.9087 63.665 77.6721 63.8902 77.605L63.776 77.2216ZM48.2466 76.0048C49.5644 76.7176 50.9641 77.2868 52.4076 77.6964L52.5168 77.3116C51.1014 76.91 49.7289 76.3518 48.4369 75.6529L48.2466 76.0048ZM47.6703 76.1764C47.7829 75.9692 48.0397 75.8924 48.2463 76.0046L48.4372 75.6531C48.0347 75.4345 47.5359 75.586 47.3188 75.9855L47.6703 76.1764ZM47.8423 76.7521C47.6356 76.6405 47.5588 76.3826 47.6705 76.1761L47.3186 75.9858C47.1019 76.3866 47.2509 76.8873 47.6522 77.1041L47.8423 76.7521ZM52.175 78.514C50.6724 78.0873 49.2144 77.4947 47.8424 76.7522L47.652 77.104C49.0499 77.8605 50.535 78.4642 52.0658 78.8988L52.175 78.514ZM52.2919 78.5305C52.254 78.5305 52.2148 78.5252 52.1747 78.5139L52.0661 78.8989C52.1407 78.9199 52.2164 78.9305 52.2919 78.9305V78.5305ZM52.7001 78.2211C52.647 78.4081 52.4768 78.5305 52.2919 78.5305V78.9305C52.6514 78.9305 52.9818 78.6934 53.0849 78.3304L52.7001 78.2211ZM52.4076 77.6964C52.6335 77.7605 52.7644 77.9954 52.7002 78.221L53.0849 78.3306C53.2098 77.892 52.955 77.436 52.5169 77.3116L52.4076 77.6964ZM40.0935 68.8773C40.4912 68.6551 40.634 68.1527 40.4116 67.7547L40.0624 67.9498C40.1769 68.1547 40.1036 68.4135 39.8984 68.5281L40.0935 68.8773ZM39.6919 68.9818C39.8281 68.9818 39.9661 68.9483 40.0932 68.8775L39.8986 68.528C39.8328 68.5646 39.7621 68.5818 39.6919 68.5818V68.9818ZM38.9709 68.5586C39.1219 68.8299 39.4035 68.9818 39.6919 68.9818V68.5818C39.5422 68.5818 39.3977 68.5029 39.3204 68.3641L38.9709 68.5586ZM37.1193 64.1684C37.5721 65.6909 38.1948 67.1681 38.971 68.5588L39.3203 68.3639C38.5584 66.9988 37.9471 65.5488 37.5027 64.0544L37.1193 64.1684ZM37.6744 63.1424C37.2379 63.2725 36.9887 63.7316 37.1193 64.1686L37.5026 64.0541C37.4355 63.8295 37.5634 63.5929 37.7886 63.5258L37.6744 63.1424ZM38.7003 63.6982C38.5713 63.2621 38.1119 63.0119 37.6743 63.1424L37.7887 63.5257C38.0139 63.4585 38.2504 63.5874 38.3167 63.8116L38.7003 63.6982ZM40.4117 67.7548C39.6949 66.4696 39.1189 65.1047 38.7002 63.6979L38.3168 63.812C38.744 65.247 39.3313 66.639 40.0623 67.9496L40.4117 67.7548ZM37.701 52.6217C37.4751 52.5578 37.3442 52.3229 37.4082 52.0968L37.0233 51.9879C36.8993 52.4258 37.1529 52.8825 37.5923 53.0066L37.701 52.6217ZM37.8175 52.6383C37.7795 52.6383 37.7406 52.6329 37.7014 52.6218L37.5918 53.0065C37.6662 53.0277 37.7421 53.0383 37.8175 53.0383V52.6383ZM38.2257 52.3289C38.1726 52.5158 38.0024 52.6383 37.8175 52.6383V53.0383C38.1771 53.0383 38.5074 52.8012 38.6105 52.4382L38.2257 52.3289ZM39.917 48.1691C39.2045 49.486 38.635 50.8857 38.2257 52.329L38.6105 52.4381C39.0118 51.0231 39.5702 49.6506 40.2688 48.3595L39.917 48.1691ZM39.7463 47.593C39.9524 47.7046 40.0292 47.9624 39.9171 48.1689L40.2687 48.3597C40.4862 47.9589 40.3372 47.458 39.9367 47.2412L39.7463 47.593ZM39.1695 47.7646C39.2815 47.5581 39.5399 47.4815 39.7464 47.5931L39.9365 47.2411C39.5363 47.0249 39.0354 47.173 38.8179 47.5738L39.1695 47.7646ZM37.4081 52.0969C37.8344 50.5937 38.4271 49.1361 39.1696 47.7644L38.8178 47.574C38.0613 48.9715 37.4576 50.4564 37.0233 51.9878L37.4081 52.0969ZM42.9143 58C42.9143 58.2191 43.0012 58.429 43.1559 58.5836L43.4388 58.3008C43.3591 58.2211 43.3143 58.113 43.3143 58H42.9143ZM43.1559 57.4164C43.0012 57.5711 42.9143 57.781 42.9143 58H43.3143C43.3143 57.8871 43.3591 57.7789 43.4388 57.6992L43.1559 57.4164ZM52.0928 48.4887L43.156 57.4163L43.4387 57.6993L52.3755 48.7717L52.0928 48.4887ZM52.9921 48.3104C52.6839 48.1821 52.3287 48.2532 52.0928 48.4887L52.3754 48.7718C52.4972 48.6502 52.6804 48.6139 52.8384 48.6797L52.9921 48.3104ZM53.501 49.0724C53.501 48.739 53.3004 48.438 52.9918 48.3102L52.8388 48.6798C52.9977 48.7456 53.101 48.9005 53.101 49.0724H53.501ZM53.501 53.7428V49.0724H53.101V53.7428H53.501ZM62.6998 53.5694L53.3016 53.5428L53.3005 53.9428L62.6987 53.9694L62.6998 53.5694ZM62.4992 49.0724V53.7694H62.8992V49.0724H62.4992ZM63.0085 48.3102C62.6998 48.438 62.4992 48.739 62.4992 49.0724H62.8992C62.8992 48.9005 63.0026 48.7456 63.1614 48.6798L63.0085 48.3102ZM63.9074 48.4887C63.6712 48.2529 63.3175 48.1831 63.0089 48.3101L63.1611 48.68C63.3212 48.6141 63.5033 48.6505 63.6248 48.7718L63.9074 48.4887ZM72.8442 57.4163L63.9075 48.4887L63.6248 48.7717L72.5615 57.6993L72.8442 57.4163ZM73.086 58C73.086 57.781 72.999 57.5711 72.8443 57.4164L72.5615 57.6992C72.6411 57.7789 72.686 57.8871 72.686 58H73.086ZM72.8443 58.5836C72.999 58.429 73.086 58.2191 73.086 58H72.686C72.686 58.113 72.6411 58.2211 72.5615 58.3008L72.8443 58.5836ZM63.9075 67.5113L72.8442 58.5837L72.5615 58.3007L63.6248 67.2283L63.9075 67.5113ZM63.3242 67.7526C63.5385 67.7526 63.7495 67.6689 63.9074 67.5114L63.6249 67.2282C63.5435 67.3094 63.4347 67.3526 63.3242 67.3526V67.7526ZM63.0086 67.6899C63.1106 67.7321 63.2178 67.7526 63.3242 67.7526V67.3526C63.2695 67.3526 63.2143 67.3421 63.1614 67.3202L63.0086 67.6899ZM62.4992 66.9276C62.4992 67.2611 62.6998 67.5621 63.0085 67.6898L63.1614 67.3202C63.0026 67.2545 62.8992 67.0996 62.8992 66.9276H62.4992ZM62.4992 62.2572V66.9276H62.8992V62.2572H62.4992ZM53.3005 62.4307L62.6987 62.4572L62.6998 62.0572L53.3016 62.0307L53.3005 62.4307ZM53.501 66.9276V62.2307H53.101V66.9276H53.501ZM52.9918 67.6898C53.3004 67.5621 53.501 67.2611 53.501 66.9276H53.101C53.101 67.0996 52.9977 67.2545 52.8388 67.3202L52.9918 67.6898ZM52.0928 67.5114C52.3287 67.7468 52.6845 67.818 52.9923 67.6896L52.8383 67.3205C52.6809 67.3861 52.4973 67.3499 52.3754 67.2283L52.0928 67.5114ZM43.156 58.5837L52.0928 67.5113L52.3755 67.2283L43.4387 58.3007L43.156 58.5837ZM51.851 50.5803V54.366H52.251V50.5803H51.851ZM44.765 58.1415L52.1924 50.7218L51.9097 50.4388L44.4823 57.8585L44.765 58.1415ZM52.1924 65.2783L44.765 57.8585L44.4823 58.1415L51.9097 65.5613L52.1924 65.2783ZM51.851 61.6038V65.4198H52.251V61.6038H51.851ZM52.0937 61.0196C51.938 61.1744 51.851 61.3848 51.851 61.6038H52.251C52.251 61.4908 52.2959 61.3826 52.3758 61.3031L52.0937 61.0196ZM52.676 60.7788C52.4576 60.7788 52.2482 60.8655 52.0935 61.0197L52.376 61.3029C52.4557 61.2234 52.5636 61.1788 52.676 61.1788V60.7788ZM52.6779 60.7788H52.676V61.1788H52.6779V60.7788ZM63.3266 60.8091L52.6784 60.7788L52.6773 61.1788L63.3255 61.2091L63.3266 60.8091ZM64.1492 61.6341C64.1492 61.1793 63.7811 60.8103 63.3266 60.8091L63.3255 61.2091C63.5595 61.2097 63.7492 61.3998 63.7492 61.6341H64.1492ZM64.1492 65.4198V61.6341H63.7492V65.4198H64.1492ZM71.2352 57.8585L63.8079 65.2783L64.0906 65.5613L71.5179 58.1415L71.2352 57.8585ZM63.8079 50.7218L71.2352 58.1415L71.5179 57.8585L64.0906 50.4388L63.8079 50.7218ZM64.1492 54.3962V50.5803H63.7492V54.3962H64.1492ZM63.9066 54.9805C64.0622 54.8256 64.1492 54.6152 64.1492 54.3962H63.7492C63.7492 54.5092 63.7044 54.6174 63.6244 54.6969L63.9066 54.9805ZM63.3425 55.2202C63.5026 55.204 63.7412 55.1454 63.9067 54.9803L63.6243 54.6971C63.5542 54.767 63.4253 54.8098 63.3022 54.8222L63.3425 55.2202ZM52.6736 55.191L63.3218 55.2212L63.323 54.8212L52.6748 54.791L52.6736 55.191ZM51.851 54.366C51.851 54.8208 52.2192 55.1898 52.6737 55.191L52.6747 54.791C52.4407 54.7904 52.251 54.6003 52.251 54.366H51.851Z" fill="white" mask="url(#path-4-outside-1)"/>
</svg>
