<svg width="117" height="117" viewBox="0 0 117 117" fill="none" xmlns="http://www.w3.org/2000/svg">
<circle cx="58" cy="58" r="39" fill="#4527A0"/>
<path d="M107.5 58.5C107.5 85.0048 85.7907 106.5 59 106.5C32.2093 106.5 10.5 85.0048 10.5 58.5C10.5 31.9952 32.2093 10.5 59 10.5C85.7907 10.5 107.5 31.9952 107.5 58.5Z" stroke="white" stroke-opacity="0.14"/>
<circle cx="58.5" cy="58.5" r="58" stroke="white" stroke-opacity="0.06"/>
<path fill-rule="evenodd" clip-rule="evenodd" d="M74.85 49.1606H74.8023L74.7546 49.2094L74.85 49.1606ZM74.8255 49.0875C74.8273 49.0893 74.8291 49.0911 74.8309 49.0929L74.8309 49.0929M74.5902 48.8218C74.614 48.837 74.6345 48.8523 74.6501 48.8675L74.648 48.8655L74.5001 48.9945C74.5171 48.9165 74.552 48.8592 74.5902 48.8218ZM74.4002 48.721C74.4064 48.724 74.4126 48.7271 74.4188 48.7301L74.4002 48.721ZM51.3 74.4711V70.9402H41C38.4091 70.9402 36.3 68.8698 36.3 66.3553V43.8849C36.3 41.3705 38.4091 39.3 41 39.3H76C78.591 39.3 80.7001 41.3705 80.7001 43.8849V66.3553C80.7001 68.8698 78.591 70.9402 76 70.9402H65.7001V74.4711H69.5C69.891 74.4711 70.2001 74.783 70.2001 75.1481C70.2001 75.5132 69.891 75.8251 69.5 75.8251H47.5C47.1091 75.8251 46.8 75.5132 46.8 75.1481C46.8 74.783 47.1091 74.4711 47.5 74.4711H51.3ZM37.7 64.7014H79.3V43.8849C79.3 42.1007 77.8091 40.654 76 40.654H41C39.191 40.654 37.7 42.1007 37.7 43.8849V64.7014ZM52.7001 74.4711H64.3V70.9402H52.7001V74.4711ZM79.3 66.0553H37.7V66.3553C37.7 68.1396 39.191 69.5862 41 69.5862H76C77.8091 69.5862 79.3 68.1396 79.3 66.3553V66.0553ZM74.4416 49.0832L74.4583 49.0996C74.5078 49.1852 74.5584 49.2434 74.6016 49.2877L74.583 49.2973C74.5975 49.3257 74.6043 49.345 74.6161 49.3796L74.6168 49.3814C74.625 49.4055 74.6351 49.4352 74.6501 49.4708V49.526L74.683 49.5903C74.6955 49.6149 74.7001 49.6415 74.7001 49.7468V60.4935C74.7001 60.8586 74.391 61.1704 74 61.1704C73.6091 61.1704 73.3 60.8586 73.3 60.4935V50.7031L69.2001 52.0193V57.416C69.2001 57.7015 69.008 57.9466 68.7018 58.0606L59.1874 61.1427L59.1684 61.152C59.1394 61.1662 59.1076 61.1704 59 61.1704C58.8925 61.1704 58.8607 61.1662 58.8317 61.152L58.8127 61.1427L49.2983 58.0606C48.9921 57.9466 48.8 57.7015 48.8 57.416V52.0202L43.7987 50.3915C43.545 50.2958 43.35 49.9908 43.35 49.6491C43.35 49.3635 43.5422 49.1184 43.8485 49.0044L58.8313 44.1251C58.9798 44.0909 59.1703 44.0909 59.3188 44.1251L74.2872 48.9997C74.3305 49.0209 74.3667 49.0389 74.3976 49.0562C74.4301 49.0743 74.4414 49.0834 74.4416 49.0832ZM59 59.7833L67.8 56.9007V52.4591L59.187 55.2811L59.1684 55.2902C59.1394 55.3044 59.1076 55.3086 59 55.3086C58.8925 55.3086 58.8607 55.3044 58.8317 55.2902L58.8131 55.2811L50.2 52.4591V56.9007L59 59.7833ZM71.8189 49.7468L59 45.5722L46.1812 49.7468L59 53.9213L71.8189 49.7468Z" fill="white"/>
</svg>
