<svg width="117" height="117" viewBox="0 0 117 117" fill="none" xmlns="http://www.w3.org/2000/svg">
<circle cx="58" cy="58" r="39" fill="#4527A0"/>
<path d="M107.5 58.5C107.5 85.0048 85.7907 106.5 59 106.5C32.2093 106.5 10.5 85.0048 10.5 58.5C10.5 31.9952 32.2093 10.5 59 10.5C85.7907 10.5 107.5 31.9952 107.5 58.5Z" stroke="white" stroke-opacity="0.14"/>
<circle cx="58.5" cy="58.5" r="58" stroke="white" stroke-opacity="0.06"/>
<path fill-rule="evenodd" clip-rule="evenodd" d="M52.5817 49.7128V49.4128C53.1095 49.4128 53.6255 49.5694 54.0644 49.8626C54.5033 50.1559 54.8453 50.5727 55.0473 51.0603C55.2493 51.548 55.3022 52.0846 55.1992 52.6023C55.0962 53.12 54.842 53.5955 54.4688 53.9688C54.0955 54.342 53.62 54.5962 53.1023 54.6992C52.5846 54.8022 52.048 54.7493 51.5603 54.5473C51.0727 54.3453 50.6559 54.0033 50.3626 53.5644C50.0694 53.1255 49.9128 52.6095 49.9128 52.0817V52.0813C49.9136 51.3738 50.1949 50.6955 50.6952 50.1952C51.1955 49.6949 51.8738 49.4136 52.5813 49.4128L52.5817 49.7128ZM37.0768 42.6912C36.9748 42.6912 36.8738 42.7112 36.7795 42.7503C36.6853 42.7893 36.5997 42.8465 36.5275 42.9186C36.4554 42.9908 36.3982 43.0764 36.3592 43.1706C36.3201 43.2649 36.3 43.3659 36.3 43.4679V52.0818C36.3 52.1838 36.3201 52.2848 36.3592 52.379C36.3982 52.4733 36.4554 52.5589 36.5275 52.631C36.5997 52.7031 36.6853 52.7603 36.7795 52.7994C36.8738 52.8384 36.9748 52.8585 37.0768 52.8585C38.2415 52.8585 39.3585 53.3212 40.1821 54.1448C41.0057 54.9683 41.4684 56.0854 41.4684 57.2501C41.4684 58.4148 41.0057 59.5318 40.1821 60.3554C39.3585 61.179 38.2415 61.6417 37.0768 61.6417C36.9748 61.6416 36.8738 61.6617 36.7795 61.7008C36.6853 61.7398 36.5997 61.797 36.5275 61.8691C36.4554 61.9413 36.3982 62.0269 36.3592 62.1211C36.3201 62.2154 36.3 62.3164 36.3 62.4184V71.0323C36.3 71.1343 36.3201 71.2353 36.3592 71.3295C36.3982 71.4238 36.4554 71.5094 36.5275 71.5815C36.5997 71.6536 36.6853 71.7108 36.7795 71.7499C36.8738 71.7889 36.9748 71.809 37.0768 71.809H78.4233C78.5253 71.809 78.6263 71.7889 78.7206 71.7499C78.8148 71.7108 78.9004 71.6536 78.9726 71.5815C79.0447 71.5094 79.1019 71.4238 79.1409 71.3295C79.18 71.2353 79.2001 71.1343 79.2001 71.0323V62.4184C79.2001 62.3164 79.18 62.2154 79.1409 62.1211C79.1019 62.0269 79.0447 61.9413 78.9726 61.8691C78.9004 61.797 78.8148 61.7398 78.7206 61.7008C78.6263 61.6617 78.5253 61.6416 78.4233 61.6417C77.2586 61.6417 76.1416 61.179 75.318 60.3554C74.4944 59.5318 74.0317 58.4148 74.0317 57.2501C74.0317 56.0854 74.4944 54.9683 75.318 54.1448C76.1416 53.3212 77.2586 52.8585 78.4233 52.8585C78.5253 52.8585 78.6263 52.8384 78.7206 52.7994C78.8148 52.7603 78.9004 52.7031 78.9726 52.631C79.0447 52.5589 79.1019 52.4733 79.1409 52.379C79.18 52.2848 79.2001 52.1838 79.2001 52.0818V43.4679C79.2001 43.3659 79.18 43.2649 79.1409 43.1706C79.1019 43.0764 79.0447 42.9908 78.9726 42.9186C78.9004 42.8465 78.8148 42.7893 78.7206 42.7503C78.6263 42.7112 78.5253 42.6912 78.4233 42.6912H37.0768ZM77.6466 51.35L77.3983 51.3935C76.0203 51.6348 74.7714 52.3544 73.8715 53.4256C72.9716 54.4968 72.4783 55.851 72.4783 57.2501C72.4783 58.6491 72.9716 60.0034 73.8715 61.0746C74.7714 62.1458 76.0203 62.8653 77.3983 63.1067L77.6466 63.1501V70.2555H37.8535V63.1501L38.1018 63.1067C39.4798 62.8653 40.7287 62.1458 41.6286 61.0746C42.5285 60.0034 43.0218 58.6491 43.0218 57.2501C43.0218 55.851 42.5285 54.4968 41.6286 53.4256C40.7287 52.3544 39.4798 51.6348 38.1018 51.3935L37.8535 51.35V44.2446H77.6466V51.35ZM48.3594 52.0815C48.3607 53.2009 48.806 54.2742 49.5976 55.0657C50.3891 55.8573 51.4623 56.3026 52.5817 56.3039L48.3594 52.0815ZM48.3594 52.0815C48.3594 51.2465 48.607 50.4302 49.071 49.7359C49.5349 49.0415 50.1943 48.5004 50.9659 48.1808C51.7374 47.8612 52.5863 47.7776 53.4054 47.9405C54.2244 48.1034 54.9768 48.5056 55.5673 49.0961C56.1577 49.6865 56.5599 50.4389 56.7228 51.2579C56.8857 52.077 56.8021 52.9259 56.4825 53.6974C56.163 54.469 55.6218 55.1284 54.9274 55.5923C54.2332 56.0562 53.417 56.3039 52.582 56.3039L48.3594 52.0815ZM65.5871 62.4186V62.4183C65.5871 61.8905 65.4306 61.3745 65.1374 60.9356C64.8441 60.4967 64.4273 60.1547 63.9396 59.9527C63.452 59.7507 62.9154 59.6978 62.3977 59.8008C61.88 59.9038 61.4044 60.1579 61.0312 60.5312C60.658 60.9044 60.4038 61.38 60.3008 61.8977C60.1978 62.4154 60.2507 62.952 60.4527 63.4396C60.6547 63.9273 60.9967 64.3441 61.4356 64.6374C61.8745 64.9306 62.3905 65.0871 62.9183 65.0871V64.7871L62.9186 65.0871C63.6261 65.0864 64.3045 64.805 64.8048 64.3048C65.305 63.8045 65.5864 63.1261 65.5871 62.4186ZM60.5726 58.9076C61.2669 58.4437 62.0831 58.1961 62.9182 58.196C64.0376 58.1974 65.1108 58.6427 65.9024 59.4342C66.694 60.2259 67.1393 61.2992 67.1406 62.4187C67.1405 63.2536 66.8929 64.0698 66.429 64.7641C65.9651 65.4584 65.3056 65.9996 64.5341 66.3192C63.7626 66.6388 62.9136 66.7224 62.0946 66.5595C61.2756 66.3966 60.5232 65.9944 59.9327 65.4039C59.3422 64.8134 58.9401 64.0611 58.7772 63.242C58.6143 62.423 58.6979 61.574 59.0175 60.8025C59.337 60.031 59.8782 59.3716 60.5726 58.9076ZM49.6853 66.4131L66.9131 49.1854C66.9854 49.1133 67.0432 49.0273 67.0824 48.933C67.1216 48.8387 67.1419 48.7376 67.142 48.6355C67.1421 48.5334 67.122 48.4323 67.083 48.3379C67.044 48.2436 66.9867 48.1578 66.9145 48.0856C66.8423 48.0134 66.7566 47.9562 66.6622 47.9171C66.5679 47.8781 66.4667 47.8581 66.3646 47.8582C66.2625 47.8583 66.1614 47.8785 66.0671 47.9177C65.9729 47.9569 65.8872 48.0143 65.8152 48.0867L48.5871 65.3148C48.4785 65.4234 48.4045 65.5618 48.3745 65.7124C48.3446 65.8631 48.36 66.0192 48.4187 66.1612C48.4775 66.3031 48.5771 66.4244 48.7048 66.5097C48.8325 66.5951 48.9826 66.6406 49.1362 66.6407C49.2381 66.6408 49.3394 66.6208 49.4335 66.5818C49.5276 66.5428 49.6134 66.4852 49.6853 66.4131Z" fill="white"/>
</svg>
