<svg width="117" height="117" viewBox="0 0 117 117" fill="none" xmlns="http://www.w3.org/2000/svg">
<circle cx="58" cy="58" r="39" fill="#4527A0"/>
<path d="M107.5 58.5C107.5 85.0048 85.7907 106.5 59 106.5C32.2093 106.5 10.5 85.0048 10.5 58.5C10.5 31.9952 32.2093 10.5 59 10.5C85.7907 10.5 107.5 31.9952 107.5 58.5Z" stroke="white" stroke-opacity="0.14"/>
<circle cx="58.5" cy="58.5" r="58" stroke="white" stroke-opacity="0.06"/>
<path d="M56.8229 75.0001C52.6264 75.0001 48.6018 73.333 45.6344 70.3657C42.6671 67.3983 41 63.3737 41 59.1772C41 54.9807 42.6671 50.956 45.6344 47.9887C48.6018 45.0213 52.6264 43.3542 56.8229 43.3542C57.0163 43.3542 57.2018 43.4311 57.3385 43.5678C57.4753 43.7046 57.5521 43.89 57.5521 44.0834V58.448H71.9167C72.1101 58.448 72.2955 58.5248 72.4323 58.6616C72.569 58.7983 72.6458 58.9838 72.6458 59.1772C72.6381 63.3713 70.9686 67.3914 68.0029 70.3572C65.0372 73.3229 61.0171 74.9924 56.8229 75.0001ZM56.0938 44.8272C53.3188 44.969 50.6445 45.9126 48.395 47.5437C46.1455 49.1747 44.4173 51.4232 43.4199 54.0166C42.4225 56.61 42.1986 59.437 42.7754 62.1551C43.3522 64.8731 44.705 67.3656 46.6698 69.3303C48.6345 71.2951 51.127 72.6478 53.845 73.2247C56.5631 73.8015 59.3901 73.5776 61.9835 72.5802C64.5769 71.5828 66.8254 69.8546 68.4564 67.6051C70.0875 65.3556 71.0311 62.6813 71.1729 59.9063H56.8229C56.6295 59.9063 56.4441 59.8295 56.3073 59.6928C56.1706 59.556 56.0938 59.3706 56.0938 59.1772V44.8272Z" fill="white"/>
<path d="M75.2707 56.5521H60.1769C59.9835 56.5521 59.7981 56.4753 59.6613 56.3385C59.5246 56.2018 59.4478 56.0163 59.4478 55.8229V40.7292C59.4478 40.5358 59.5246 40.3503 59.6613 40.2136C59.7981 40.0768 59.9835 40 60.1769 40C64.3711 40.0077 68.3912 41.6772 71.3569 44.6429C74.3226 47.6086 75.9921 51.6288 75.9998 55.8229C75.9998 56.0163 75.923 56.2018 75.7863 56.3385C75.6495 56.4753 75.4641 56.5521 75.2707 56.5521ZM60.9061 55.0938H74.5415C74.3522 51.5388 72.8548 48.1796 70.3375 45.6623C67.8203 43.145 64.461 41.6477 60.9061 41.4583V55.0938Z" fill="white"/>
<path d="M60.1773 46.2417C60.0816 46.2429 59.9868 46.224 59.8989 46.1863C59.811 46.1487 59.732 46.093 59.6669 46.0229C59.5985 45.9552 59.5443 45.8745 59.5072 45.7857C59.4702 45.6968 59.4512 45.6015 59.4512 45.5052C59.4512 45.409 59.4702 45.3137 59.5072 45.2248C59.5443 45.136 59.5985 45.0553 59.6669 44.9875L63.8523 40.8021C63.9201 40.7338 64.0007 40.6795 64.0896 40.6425C64.1784 40.6055 64.2737 40.5864 64.37 40.5864C64.4662 40.5864 64.5615 40.6055 64.6504 40.6425C64.7393 40.6795 64.8199 40.7338 64.8877 40.8021C65.0222 40.9409 65.0975 41.1266 65.0975 41.3198C65.0975 41.5131 65.0222 41.6988 64.8877 41.8375L60.6877 46.0229C60.6226 46.093 60.5435 46.1487 60.4556 46.1863C60.3677 46.224 60.2729 46.2429 60.1773 46.2417Z" fill="white"/>
<path d="M60.1772 50.9666C60.0816 50.9678 59.9867 50.9489 59.8988 50.9112C59.8109 50.8736 59.7319 50.8179 59.6668 50.7479C59.597 50.6824 59.5414 50.6033 59.5034 50.5155C59.4654 50.4278 59.4458 50.3331 59.4458 50.2374C59.4458 50.1418 59.4654 50.0471 59.5034 49.9594C59.5414 49.8716 59.597 49.7925 59.6668 49.727L67.1626 42.2312C67.298 42.0958 67.4816 42.0198 67.673 42.0198C67.8645 42.0198 68.0481 42.0958 68.1834 42.2312C68.3188 42.3666 68.3949 42.5502 68.3949 42.7416C68.3949 42.9331 68.3188 43.1167 68.1834 43.252L60.6876 50.7479C60.6225 50.8179 60.5434 50.8736 60.4555 50.9112C60.3676 50.9489 60.2728 50.9678 60.1772 50.9666Z" fill="white"/>
<path d="M60.1773 55.7209C60.0816 55.722 59.9868 55.7032 59.8989 55.6655C59.811 55.6278 59.732 55.5722 59.6669 55.5021C59.5985 55.4343 59.5443 55.3537 59.5072 55.2648C59.4702 55.176 59.4512 55.0807 59.4512 54.9844C59.4512 54.8881 59.4702 54.7928 59.5072 54.704C59.5443 54.6151 59.5985 54.5345 59.6669 54.4667L69.8752 44.2583C70.014 44.1238 70.1996 44.0486 70.3929 44.0486C70.5862 44.0486 70.7719 44.1238 70.9106 44.2583C70.979 44.3261 71.0332 44.4068 71.0702 44.4956C71.1072 44.5845 71.1263 44.6798 71.1263 44.7761C71.1263 44.8723 71.1072 44.9676 71.0702 45.0565C71.0332 45.1453 70.979 45.226 70.9106 45.2938L60.7023 55.5021C60.6355 55.574 60.5541 55.6308 60.4635 55.6685C60.373 55.7062 60.2753 55.7241 60.1773 55.7209Z" fill="white"/>
<path d="M64.0854 56.5521C63.9898 56.5533 63.8949 56.5344 63.807 56.4967C63.7191 56.4591 63.6401 56.4034 63.575 56.3334C63.5052 56.2679 63.4496 56.1888 63.4116 56.101C63.3736 56.0133 63.354 55.9186 63.354 55.8229C63.354 55.7273 63.3736 55.6326 63.4116 55.5448C63.4496 55.4571 63.5052 55.378 63.575 55.3125L72.1062 46.7667C72.2435 46.6294 72.4297 46.5522 72.6239 46.5522C72.8181 46.5522 73.0043 46.6294 73.1416 46.7667C73.2789 46.904 73.3561 47.0902 73.3561 47.2844C73.3561 47.4786 73.2789 47.6648 73.1416 47.8021L64.5958 56.3334C64.5307 56.4034 64.4516 56.4591 64.3637 56.4967C64.2758 56.5344 64.181 56.5533 64.0854 56.5521Z" fill="white"/>
<path d="M68.8102 56.5523C68.6675 56.5503 68.5285 56.5064 68.4105 56.4262C68.2925 56.3459 68.2006 56.2328 68.1462 56.1008C68.0919 55.9688 68.0775 55.8238 68.1048 55.6837C68.1321 55.5436 68.1999 55.4146 68.2998 55.3127L73.7248 49.8731C73.8636 49.7386 74.0493 49.6633 74.2425 49.6633C74.4358 49.6633 74.6215 49.7386 74.7602 49.8731C74.8286 49.9409 74.8828 50.0215 74.9198 50.1104C74.9569 50.1992 74.9759 50.2945 74.9759 50.3908C74.9759 50.4871 74.9569 50.5824 74.9198 50.6712C74.8828 50.7601 74.8286 50.8407 74.7602 50.9085L69.3352 56.3335C69.1961 56.4731 69.0073 56.5518 68.8102 56.5523Z" fill="white"/>
</svg>
